<svg width="200" height="49" viewBox="0 0 200 49" fill="none" xmlns="http://www.w3.org/2000/svg">
    <g clip-path="url(#clip0_4305_8876)">
        <path d="M107.968 2.39507H105.486V0.316407H110.331V12.9424H107.968V2.39507ZM113.371 6.64181C113.371 2.48586 116.437 0.020635 120.323 0.020635C124.183 0.020635 127.249 2.48586 127.249 6.64181C127.249 10.7978 124.183 13.263 120.324 13.263C116.438 13.263 113.372 10.7964 113.372 6.64181H113.371ZM115.736 6.64181C115.736 9.54037 117.514 11.2531 120.323 11.2531C123.132 11.2531 124.91 9.54037 124.91 6.64181C124.91 3.74324 123.13 2.02914 120.323 2.02914C117.515 2.02914 115.737 3.74186 115.737 6.64181H115.736ZM129.915 6.64181C129.915 2.48586 132.981 0.020635 136.866 0.020635C140.728 0.020635 143.793 2.48586 143.793 6.64181C143.793 10.7978 140.728 13.263 136.866 13.263C132.982 13.263 129.917 10.7964 129.917 6.64181H129.915ZM132.279 6.64181C132.279 9.54037 134.057 11.2531 136.866 11.2531C139.674 11.2531 141.453 9.54037 141.453 6.64181C141.453 3.74324 139.676 2.02914 136.874 2.02914C134.072 2.02914 132.28 3.74186 132.28 6.64181H132.279ZM158.978 9.81551L160.407 2.41708H166.188V12.9424H168.575V0.316407H158.448L156.67 9.51837C156.482 10.4084 155.897 10.7744 155.008 10.7744H153.861V12.9424H155.173C157.179 12.9424 158.589 11.9602 158.98 9.81551H158.978ZM183.924 10.8198H174.382V7.53188H182.666V5.45459H174.382V2.41708H183.58V0.316407H171.985V12.9424H183.921L183.924 10.8198ZM186.613 0.316407V2.41708H192.112V12.9424H194.499V2.41708H199.999V0.316407H186.613ZM118.12 29.7162H111.386L109.403 33.2572H106.276L108.707 29.0613C106.724 28.0805 105.604 26.3361 105.604 24.0208C105.604 20.5321 108.283 18.1893 111.861 18.1893H120.967V33.2572H118.12V29.7162ZM118.12 27.1808V20.7233H112C109.878 20.7233 108.454 22.0041 108.454 24.025C108.454 26.0679 109.878 27.189 112 27.189L118.12 27.1808ZM136.636 18.1893L143.2 33.2572H140.212L139.15 30.8869H128.617L127.556 33.2572H124.512L131.27 18.1893H136.636ZM138.002 28.434L134.759 20.6683H133.002L129.683 28.434H138.002ZM161.767 29.8524L159.534 28.5702C158.249 30.2334 156.601 31.1593 154.035 31.1593C150.65 31.1593 148.337 28.9252 148.337 25.7377C148.337 22.436 150.57 20.3147 154.035 20.3147C156.573 20.3147 158.307 21.2406 159.534 22.8763L161.741 21.623C160.149 19.1702 157.551 17.8344 154.087 17.8344C149.254 17.8344 145.512 20.832 145.512 25.7377C145.512 30.6145 149.178 33.6396 154.087 33.6396C157.602 33.6396 160.149 32.2763 161.767 29.8524ZM173.33 33.6396C176.855 33.6396 179.393 32.2763 181.011 29.8524L178.776 28.5702C177.491 30.2334 175.844 31.1593 173.276 31.1593C169.892 31.1593 167.578 28.9252 167.578 25.7377C167.578 22.436 169.812 20.3147 173.276 20.3147C175.815 20.3147 177.549 21.2406 178.776 22.8763L180.984 21.623C179.392 19.1702 176.795 17.8344 173.33 17.8344C168.498 17.8344 164.755 20.832 164.755 25.7377C164.754 30.6145 168.413 33.6396 173.329 33.6396H173.33ZM200.001 24.0208C200.001 27.5357 197.265 29.7698 193.717 29.7698H187.489V33.2572H184.64V18.1893H193.717C197.263 18.1893 200 20.5046 200 24.0208H200.001ZM197.181 24.0208C197.181 21.9766 195.728 20.7192 193.605 20.7192H187.489V27.2303H193.605C195.726 27.2303 197.18 26.0362 197.18 24.0208H197.181ZM105.487 39.5441H107.421V47.761H109.254V37.9263H105.487V39.5441ZM121.619 42.8705C121.619 45.8406 119.54 48.01 116.314 48.01C114.692 48.01 113.434 47.761 112.103 47.0856L112.808 45.6796C113.993 46.2492 114.905 46.4087 116.308 46.4087C118.295 46.4087 119.534 45.52 119.79 43.6354C118.587 44.1512 117.639 44.4167 116.2 44.4167C113.774 44.4167 111.769 43.5102 111.769 41.1275C111.769 39.0461 113.647 37.6951 116.582 37.6951C119.996 37.6951 121.619 39.705 121.619 42.8705ZM119.812 42.1592C119.649 40.1851 118.738 39.2951 116.386 39.2951C114.526 39.2951 113.597 40.0077 113.597 41.1454C113.597 42.3546 114.454 42.8168 116.458 42.8168C117.79 42.8168 118.666 42.6036 119.812 42.1592ZM133.099 41.0587C133.099 38.7475 131.203 37.6979 128.56 37.6979C126.829 37.6979 125.279 38.2138 123.948 39.5124L125.06 40.668C126.048 39.7958 127.047 39.3336 128.487 39.3336C130.365 39.3336 131.276 39.9568 131.276 41.0229C131.276 41.6819 130.929 42.1441 130.255 42.5169L124.169 45.9286V47.761H132.845V46.1419H126.903L131.241 43.777C132.445 43.1195 133.101 42.195 133.101 41.0559L133.099 41.0587ZM144.453 41.0587C144.453 38.7475 142.558 37.6979 139.914 37.6979C138.183 37.6979 136.634 38.2138 135.303 39.5124L136.414 40.668C137.401 39.7958 138.401 39.3336 139.842 39.3336C141.719 39.3336 142.631 39.9568 142.631 41.0229C142.631 41.6819 142.285 42.1441 141.61 42.5169L135.522 45.9314V47.7638H144.206V46.1419H138.257L142.596 43.777C143.799 43.1195 144.455 42.195 144.455 41.0559L144.453 41.0587ZM146.622 43.5349H152.364V41.9501H146.622V43.5349ZM163.736 41.0587C163.736 38.7475 161.841 37.6979 159.198 37.6979C157.467 37.6979 155.917 38.2138 154.586 39.5124L155.698 40.668C156.686 39.7958 157.685 39.3336 159.125 39.3336C161.003 39.3336 161.914 39.9568 161.914 41.0229C161.914 41.6819 161.567 42.1441 160.893 42.5169L154.805 45.9314V47.7638H163.482V46.1419H157.539L161.877 43.777C163.082 43.1195 163.737 42.195 163.737 41.0559L163.736 41.0587ZM176.659 42.8553C176.659 46.0923 174.271 48.0128 171.264 48.0128C168.237 48.0128 165.85 46.0868 165.85 42.8553C165.85 39.6239 168.237 37.6979 171.264 37.6979C174.272 37.6951 176.661 39.6115 176.661 42.8526L176.659 42.8553ZM174.836 42.8553C174.836 40.5965 173.451 39.2621 171.264 39.2621C169.077 39.2621 167.691 40.5965 167.691 42.8553C167.691 45.1142 169.076 46.4473 171.264 46.4473C173.453 46.4473 174.837 45.1142 174.837 42.8526L174.836 42.8553ZM187.976 41.0587C187.976 38.7475 186.081 37.6979 183.437 37.6979C181.706 37.6979 180.158 38.2138 178.826 39.5124L179.938 40.668C180.925 39.7958 181.926 39.3336 183.365 39.3336C185.242 39.3336 186.155 39.9568 186.155 41.0229C186.155 41.6819 185.808 42.1441 185.134 42.5169L179.045 45.9314V47.7638H187.721V46.1419H181.779L186.118 43.777C187.322 43.1195 187.978 42.195 187.978 41.0559L187.976 41.0587ZM199.332 41.0587C199.332 38.7475 197.435 37.6979 194.793 37.6979C193.061 37.6979 191.511 38.2138 190.182 39.5124L191.293 40.668C192.28 39.7958 193.28 39.3336 194.719 39.3336C196.598 39.3336 197.508 39.9568 197.508 41.0229C197.508 41.6819 197.162 42.1441 196.488 42.5169L190.399 45.9314V47.7638H199.076V46.1419H193.136L197.473 43.777C198.676 43.1195 199.34 42.195 199.34 41.0559L199.332 41.0587ZM97.1651 11.8103C97.1508 11.6954 97.1123 11.5847 97.0522 11.4851C96.992 11.3854 96.9114 11.299 96.8154 11.2311C96.7197 11.16 96.6104 11.1084 96.4939 11.0794C96.3774 11.0503 96.256 11.0444 96.1371 11.0619C96.0249 11.0781 95.9171 11.1161 95.8202 11.1738C95.7233 11.2314 95.6392 11.3075 95.5731 11.3976C95.4364 11.578 95.3774 11.8035 95.4087 12.0259C95.4401 12.2482 95.5593 12.4498 95.7409 12.5875V12.5875C95.8936 12.696 96.078 12.7539 96.2669 12.7526C96.4007 12.7533 96.533 12.7256 96.6547 12.6714C96.7765 12.6172 96.8847 12.5379 96.9719 12.4389C97.0465 12.3526 97.1021 12.2523 97.1353 12.1441C97.1685 12.036 97.1787 11.9224 97.1651 11.8103V11.8103ZM98.1155 18.038C98.1537 18.186 98.2333 18.3208 98.3453 18.4273C98.4548 18.5326 98.5897 18.6092 98.7376 18.6501C98.8855 18.6909 99.0416 18.6948 99.1914 18.6612C99.3038 18.6361 99.41 18.5892 99.5035 18.5232C99.597 18.4573 99.6759 18.3737 99.7356 18.2774C99.7997 18.1755 99.8419 18.062 99.8599 17.9438C99.8778 17.8256 99.871 17.7051 99.84 17.5895C99.8122 17.4743 99.7602 17.3659 99.6874 17.2712C99.6146 17.1765 99.5226 17.0975 99.417 17.0392C99.3172 16.9836 99.2067 16.9486 99.0924 16.9365C98.9781 16.9244 98.8625 16.9355 98.7528 16.9691C98.5276 17.0354 98.3366 17.1827 98.2183 17.3811C98.1001 17.5794 98.0633 17.8142 98.1155 18.038V18.038ZM97.1468 14.6524C97.1085 14.7542 97.0912 14.8624 97.0958 14.9707C97.1004 15.0791 97.1268 15.1855 97.1735 15.2839C97.2196 15.3909 97.2866 15.4881 97.371 15.57C97.4919 15.6859 97.6445 15.7654 97.8105 15.7991C97.9765 15.8327 98.149 15.8191 98.3072 15.7598C98.4194 15.7176 98.5217 15.6539 98.6083 15.5725C98.6948 15.4911 98.7639 15.3936 98.8113 15.2859C98.8587 15.1781 98.8836 15.0622 98.8844 14.9449C98.8853 14.8276 98.8621 14.7113 98.8163 14.6029C98.7165 14.3896 98.5347 14.2232 98.3101 14.1397C98.0855 14.0563 97.8362 14.0626 97.6163 14.1572C97.508 14.2047 97.4105 14.2731 97.3299 14.3582C97.2492 14.4432 97.1869 14.5433 97.1468 14.6524V14.6524ZM99.0334 21.2364C99.064 21.4181 99.1535 21.5854 99.2887 21.7138C99.3835 21.8058 99.4976 21.8766 99.6233 21.9212C99.7489 21.9659 99.883 21.9834 100.016 21.9724C100.132 21.9629 100.244 21.9302 100.346 21.8765C100.448 21.8228 100.538 21.7491 100.61 21.6602C100.682 21.5683 100.734 21.4632 100.763 21.351C100.792 21.2389 100.797 21.1222 100.778 21.0081C100.761 20.8921 100.72 20.7805 100.658 20.6801C100.596 20.5797 100.514 20.4924 100.417 20.4234C100.325 20.357 100.221 20.3094 100.11 20.2833C99.9987 20.2573 99.8834 20.2535 99.7709 20.2721C99.5431 20.3068 99.3383 20.4272 99.2005 20.6075C99.0626 20.7877 99.0026 21.0135 99.0334 21.2364V21.2364ZM73.7847 1.60955C73.6882 1.53755 73.5777 1.48552 73.4598 1.45666C73.342 1.4278 73.2193 1.42272 73.0994 1.44172C72.9789 1.45897 72.8631 1.49963 72.759 1.5613C72.6548 1.62298 72.5644 1.70441 72.4931 1.80077C72.4255 1.89189 72.3774 1.99539 72.3517 2.10507C72.326 2.21475 72.3233 2.32835 72.3436 2.43909C72.3794 2.64234 72.4867 2.82706 72.647 2.96141C72.8074 3.09576 73.0108 3.17133 73.2221 3.17508C73.2651 3.17483 73.308 3.17115 73.3504 3.16408C73.5808 3.12395 73.7872 3.00021 73.9279 2.81774C74.0686 2.63527 74.1333 2.40759 74.109 2.18046C74.0976 2.06879 74.0629 1.96056 74.0072 1.8624C73.9514 1.76424 73.8757 1.6782 73.7847 1.60955V1.60955ZM65.289 4.53151C65.1714 4.50073 65.0487 4.49309 64.9281 4.50902C64.8074 4.52496 64.6912 4.56416 64.5862 4.62433C64.4813 4.6845 64.3896 4.76445 64.3166 4.85952C64.2436 4.95459 64.1907 5.06287 64.161 5.17808C64.1333 5.28726 64.1288 5.40081 64.1477 5.51176C64.1666 5.62271 64.2086 5.72872 64.271 5.82327C64.3537 5.94844 64.4669 6.05165 64.6006 6.12367C64.7342 6.19569 64.884 6.23428 65.0366 6.23598C65.1946 6.23864 65.3503 6.19865 65.4865 6.12042C65.6826 6.00042 65.8248 5.81224 65.8842 5.59389C65.9436 5.37555 65.9159 5.14335 65.8065 4.94421C65.7535 4.84474 65.6803 4.75684 65.5913 4.68589C65.5024 4.61493 65.3995 4.5624 65.289 4.53151V4.53151ZM70.6544 2.17221C70.5493 2.11123 70.4328 2.07131 70.3118 2.05478C70.1907 2.03824 70.0675 2.04543 69.9493 2.07591C69.8316 2.10403 69.721 2.15509 69.6241 2.22601C69.5271 2.29694 69.4459 2.38626 69.3853 2.48861C69.3291 2.59001 69.2953 2.70177 69.2861 2.81668C69.2769 2.9316 69.2924 3.04712 69.3317 3.15582C69.3917 3.33818 69.509 3.49752 69.6668 3.61133C69.8247 3.72513 70.0153 3.78764 70.2116 3.79001C70.2844 3.78985 70.3569 3.7806 70.4273 3.7625C70.6524 3.70185 70.8442 3.55754 70.9615 3.36054C71.0788 3.16355 71.1123 2.92954 71.0548 2.70872C71.0285 2.59798 70.9794 2.4936 70.9106 2.40186C70.8418 2.31013 70.7546 2.23294 70.6544 2.17496V2.17221ZM67.7327 3.25212C67.6248 3.20738 67.5085 3.18501 67.3913 3.18643C67.274 3.18785 67.1584 3.21303 67.0516 3.26037C66.8327 3.35659 66.6616 3.53339 66.5757 3.7522C66.4899 3.971 66.4962 4.21406 66.5934 4.42833C66.642 4.53387 66.7119 4.62881 66.7988 4.7075C66.8858 4.78619 66.9881 4.84704 67.0996 4.88643C67.1898 4.91962 67.2852 4.9373 67.3816 4.93871C67.5086 4.94032 67.6344 4.91399 67.7496 4.86167C67.9617 4.77388 68.1306 4.60928 68.2208 4.40248C68.311 4.19569 68.3155 3.96282 68.2333 3.75287C68.1894 3.64042 68.1223 3.53796 68.0362 3.45183C67.9501 3.36569 67.8468 3.29772 67.7327 3.25212V3.25212ZM60.3665 8.50311C60.2841 8.59084 60.2204 8.69365 60.179 8.80558C60.1376 8.91751 60.1194 9.03634 60.1254 9.15518C60.131 9.26789 60.1595 9.37838 60.2094 9.48018C60.2593 9.58199 60.3295 9.67307 60.4158 9.7481C60.5828 9.89326 60.7986 9.97355 61.0222 9.97372C61.1433 9.9744 61.2633 9.95027 61.3743 9.90287C61.4853 9.85548 61.5849 9.78588 61.6666 9.69858V9.69858C61.8195 9.52761 61.9009 9.30678 61.8946 9.07995C61.8884 8.85313 61.7949 8.6369 61.6327 8.47422C61.5498 8.39093 61.4501 8.32521 61.34 8.28119C61.2298 8.23716 61.1116 8.21577 60.9926 8.21834C60.8737 8.22077 60.7566 8.24734 60.6488 8.29637C60.541 8.3454 60.4448 8.41581 60.3665 8.50311V8.50311ZM75.426 2.10755C75.4302 2.22332 75.4581 2.33712 75.5079 2.44224C75.5578 2.54737 75.6287 2.64172 75.7165 2.71973C75.8705 2.85769 76.0715 2.93512 76.2805 2.93709H76.3228C76.5533 2.93571 76.7742 2.8467 76.9385 2.68898C77.1028 2.53125 77.1976 2.31724 77.2027 2.09242C77.2065 1.97399 77.1857 1.85606 77.1416 1.74566C77.0975 1.63527 77.031 1.5347 76.9461 1.44997C76.8632 1.36666 76.7636 1.30102 76.6534 1.25722C76.5432 1.21341 76.4249 1.19238 76.3059 1.19547C76.0658 1.20409 75.8388 1.30464 75.6741 1.47535C75.5094 1.64606 75.4203 1.87319 75.426 2.10755V2.10755ZM82.2254 3.69234C82.2947 3.7087 82.3657 3.71701 82.4369 3.7171C82.6344 3.71458 82.8259 3.65104 82.984 3.5356C83.1421 3.42016 83.2586 3.25878 83.3168 3.07466C83.3509 2.96744 83.3623 2.85455 83.3501 2.7429C83.338 2.63126 83.3027 2.5232 83.2463 2.42533C83.1862 2.32258 83.1051 2.23294 83.0081 2.16195C82.9111 2.09097 82.8002 2.04015 82.6823 2.01263C82.5641 1.98148 82.4407 1.97408 82.3195 1.99087C82.1983 2.00766 82.0818 2.04829 81.9772 2.1103C81.8783 2.16836 81.7925 2.24534 81.7249 2.33659C81.6573 2.42785 81.6093 2.5315 81.5838 2.64131C81.5317 2.86338 81.5694 3.09648 81.6888 3.2922C81.8083 3.48792 82.0005 3.63122 82.2254 3.69234V3.69234ZM79.5308 1.40045C79.4125 1.38122 79.2914 1.38582 79.175 1.41397C79.0586 1.44213 78.9493 1.49324 78.8539 1.56415C78.7605 1.63468 78.6833 1.7235 78.6272 1.82491C78.5711 1.92632 78.5373 2.03806 78.5282 2.15295C78.5091 2.37875 78.577 2.60338 78.7186 2.78297C78.8602 2.96256 79.0653 3.08422 79.2939 3.12418V3.12418C79.3364 3.13007 79.3792 3.13328 79.4222 3.13381C79.6335 3.13043 79.8369 3.05432 79.9963 2.9189C80.1558 2.78348 80.2611 2.59747 80.2936 2.39369C80.3119 2.28248 80.3074 2.16885 80.2806 2.05931C80.2537 1.94977 80.205 1.84649 80.1371 1.75537C80.0653 1.65983 79.9747 1.57922 79.8706 1.51827C79.7665 1.45732 79.6509 1.41727 79.5308 1.40045V1.40045ZM63.2304 6.19196C62.9922 6.15506 62.7487 6.21196 62.5535 6.35016C62.4591 6.41266 62.3795 6.49407 62.32 6.58895C62.2604 6.68384 62.2222 6.79003 62.208 6.90044C62.1904 7.02035 62.1987 7.14254 62.2325 7.25912C62.2663 7.3757 62.3247 7.48408 62.404 7.57727C62.4847 7.67187 62.5855 7.74819 62.6995 7.80094C62.8135 7.85368 62.9378 7.88157 63.064 7.88268C63.2607 7.88371 63.453 7.82611 63.6153 7.71759H63.6223C63.7136 7.65256 63.7905 7.57036 63.8486 7.47586C63.9067 7.38135 63.9449 7.27644 63.9608 7.16732C63.9918 6.9437 63.9332 6.71703 63.7972 6.5345C63.7309 6.44342 63.6466 6.36619 63.5492 6.30736C63.4519 6.24854 63.3435 6.2093 63.2304 6.19196V6.19196ZM94.4437 8.33528C94.3479 8.26428 94.2386 8.21273 94.1221 8.18367C94.0056 8.1546 93.8843 8.14862 93.7654 8.16607C93.6534 8.18313 93.5459 8.22156 93.4492 8.27915C93.3524 8.33675 93.2682 8.41238 93.2014 8.50173C93.0645 8.68243 93.0055 8.90814 93.0368 9.13071C93.0682 9.35328 93.1875 9.55509 93.3692 9.69308V9.69308C93.5213 9.80158 93.7053 9.85946 93.8937 9.85816C94.0275 9.85891 94.1599 9.83124 94.2817 9.77708C94.4034 9.72292 94.5116 9.64356 94.5988 9.5445C94.6741 9.4585 94.7304 9.35831 94.7644 9.25016C94.7984 9.14201 94.8092 9.02821 94.7962 8.91581C94.7814 8.80063 94.7425 8.68965 94.6818 8.58978C94.6212 8.4899 94.5401 8.40327 94.4437 8.33528V8.33528ZM91.7984 6.10529C91.7026 6.0343 91.5933 5.98274 91.4768 5.95368C91.3603 5.92462 91.239 5.91863 91.1201 5.93608C91.008 5.95285 90.9004 5.99116 90.8036 6.04878C90.7068 6.1064 90.6227 6.18218 90.5561 6.27175C90.4193 6.45222 90.3603 6.67771 90.3917 6.90006C90.423 7.1224 90.5423 7.32397 90.7239 7.46172V7.46172C90.8761 7.57022 91.06 7.62809 91.2484 7.6268C91.3822 7.62727 91.5145 7.59948 91.6362 7.54534C91.7579 7.4912 91.8661 7.41198 91.9535 7.31314C92.0286 7.22676 92.0849 7.12632 92.1188 7.01798C92.1527 6.90964 92.1637 6.79568 92.1509 6.68308C92.1359 6.56833 92.0968 6.45782 92.0362 6.35842C91.9756 6.25902 91.8946 6.17286 91.7984 6.10529V6.10529ZM85.7351 3.00037C85.5106 2.91662 85.2613 2.92267 85.0414 3.0172C84.8214 3.11174 84.6486 3.28712 84.5605 3.50525C84.5177 3.6133 84.4976 3.72861 84.5012 3.84437C84.5048 3.96014 84.5322 4.07403 84.5816 4.17933C84.6274 4.2784 84.693 4.36754 84.7746 4.44149C84.8562 4.51544 84.9522 4.57271 85.0568 4.60992C85.269 4.6982 85.5081 4.70184 85.723 4.62006C85.9378 4.53827 86.1112 4.37757 86.206 4.17245C86.2557 4.06549 86.2829 3.94988 86.286 3.83247C86.289 3.71507 86.2679 3.59826 86.2239 3.48897C86.1798 3.37967 86.1137 3.28011 86.0295 3.19618C85.9453 3.11226 85.8447 3.04567 85.7337 3.00037H85.7351ZM88.6187 4.42695C88.5155 4.36452 88.4004 4.32339 88.2803 4.30612C88.1603 4.28884 88.0379 4.29579 87.9207 4.32653C87.8095 4.3558 87.7057 4.40689 87.6155 4.47667C87.5253 4.54645 87.4507 4.63346 87.3961 4.73236C87.2846 4.93319 87.2551 5.16773 87.3134 5.38893C87.3717 5.61013 87.5136 5.80164 87.7106 5.92507C87.8446 6.00412 87.9981 6.04598 88.1547 6.04614C88.3082 6.04561 88.4591 6.00756 88.5936 5.93547C88.7281 5.86337 88.8419 5.75952 88.9246 5.63343C88.9868 5.5385 89.0289 5.43236 89.0482 5.3213C89.0676 5.21024 89.0639 5.09651 89.0374 4.98686C89.0095 4.8708 88.9579 4.76143 88.8857 4.66524C88.8135 4.56905 88.7222 4.48801 88.6172 4.42695H88.6187ZM58.9198 10.5653C58.7991 10.5809 58.683 10.6201 58.5783 10.6806C58.4736 10.7411 58.3826 10.8217 58.3106 10.9174C58.2368 11.0116 58.1836 11.1195 58.1543 11.2345C58.1249 11.3495 58.1201 11.4691 58.14 11.586C58.159 11.6971 58.201 11.8032 58.2636 11.8979C58.3261 11.9925 58.4079 12.0736 58.5038 12.1363C58.6585 12.2377 58.8406 12.2918 59.0269 12.2917C59.2145 12.2958 59.3985 12.2415 59.5523 12.1366C59.7061 12.0317 59.8216 11.8818 59.8821 11.7085C59.9426 11.5352 59.9449 11.3477 59.8888 11.173C59.8326 10.9984 59.7209 10.8457 59.5698 10.7372C59.4788 10.6674 59.3744 10.6162 59.2627 10.5867C59.151 10.5572 59.0344 10.5499 58.9198 10.5653ZM101.199 24.3042C101.182 24.188 101.142 24.0762 101.08 23.9755C101.018 23.8748 100.936 23.7873 100.838 23.7182C100.746 23.6526 100.642 23.6055 100.531 23.5798C100.42 23.554 100.305 23.5501 100.193 23.5682C99.965 23.6029 99.7605 23.7231 99.6226 23.9031C99.4848 24.0831 99.4246 24.3085 99.455 24.5312V24.5312C99.4853 24.7134 99.5747 24.8812 99.7103 25.01C99.8051 25.1019 99.9193 25.1727 100.045 25.2174C100.171 25.262 100.305 25.2795 100.438 25.2686C100.553 25.259 100.666 25.2264 100.768 25.1726C100.87 25.1189 100.96 25.0453 101.031 24.9563C101.104 24.8646 101.156 24.7594 101.185 24.6473C101.214 24.5351 101.219 24.4183 101.199 24.3042ZM98.6612 33.9849C98.4458 33.8943 98.2034 33.8865 97.9824 33.9631C97.7614 34.0396 97.5782 34.1949 97.4697 34.3976C97.3997 34.5342 97.3699 34.6871 97.3836 34.8392C97.3974 34.9887 97.4493 35.1324 97.5348 35.2572C97.6203 35.3819 97.7366 35.4837 97.8729 35.5532C97.9751 35.6056 98.0871 35.6374 98.2022 35.6466C98.3173 35.6558 98.4331 35.6423 98.5427 35.6069C98.6585 35.5696 98.7654 35.5101 98.8572 35.4319C98.949 35.3537 99.0238 35.2584 99.0771 35.1515C99.1323 35.0459 99.1646 34.9303 99.1721 34.812C99.1796 34.6937 99.1622 34.5751 99.1209 34.4637C99.0818 34.3574 99.0209 34.2602 98.9419 34.1778C98.8628 34.0955 98.7673 34.0298 98.6612 33.9849ZM97.2398 37.1421C97.0441 37.0237 96.8085 36.985 96.5837 37.0344C96.359 37.0838 96.1632 37.2174 96.0384 37.4063V37.4063C95.9396 37.5631 95.8961 37.7472 95.9144 37.9304C95.9248 38.0605 95.9643 38.1867 96.0301 38.3003C96.0958 38.4139 96.1863 38.5121 96.2951 38.588C96.3893 38.6537 96.4964 38.6998 96.6097 38.7234C96.723 38.7471 96.84 38.7478 96.9536 38.7255C97.0699 38.7017 97.18 38.6549 97.277 38.5879C97.374 38.521 97.4559 38.4353 97.5176 38.3362C97.5822 38.2371 97.6256 38.1264 97.6452 38.0105C97.6648 37.8947 97.6603 37.7762 97.6318 37.6621C97.6048 37.5536 97.5555 37.4516 97.4869 37.3622C97.4183 37.2728 97.3319 37.198 97.2328 37.1421H97.2398ZM100.424 27.4697C100.332 27.4033 100.228 27.3556 100.117 27.3296C100.006 27.3036 99.8905 27.2998 99.7779 27.3184C99.5504 27.3531 99.3459 27.4732 99.2081 27.6532C99.0702 27.8332 99.0101 28.0586 99.0405 28.2813V28.2813C99.0711 28.463 99.1605 28.6303 99.2957 28.7587C99.3905 28.8507 99.5047 28.9215 99.6303 28.9661C99.756 29.0108 99.89 29.0283 100.023 29.0173C100.139 29.0078 100.251 28.9751 100.353 28.9214C100.456 28.8677 100.545 28.794 100.617 28.705C100.687 28.6129 100.737 28.5079 100.765 28.3963C100.792 28.2847 100.796 28.1688 100.776 28.0557C100.76 27.9396 100.719 27.8278 100.657 27.7272C100.596 27.6265 100.514 27.539 100.417 27.4697H100.424ZM99.6722 31.1249C99.5582 31.0926 99.4387 31.0829 99.3207 31.0963C99.2028 31.1098 99.0888 31.1462 98.9855 31.2033C98.8887 31.2566 98.8036 31.3281 98.7352 31.4135C98.6667 31.499 98.6161 31.5968 98.5864 31.7013C98.5147 31.915 98.5315 32.1476 98.6332 32.3494C98.7349 32.5512 98.9134 32.7062 99.1307 32.7812C99.2442 32.8203 99.3646 32.8369 99.4848 32.8299C99.605 32.8229 99.7225 32.7924 99.8304 32.7404C99.9383 32.6883 100.034 32.6157 100.113 32.5267C100.192 32.4378 100.251 32.3344 100.288 32.2227C100.354 31.9965 100.325 31.7542 100.208 31.5487C100.092 31.3431 99.8964 31.1908 99.6651 31.1249H99.6722ZM92.5443 42.5004C92.3483 42.3825 92.1127 42.3442 91.888 42.3939C91.6634 42.4435 91.4677 42.5771 91.3429 42.7659V42.7659C91.2445 42.9235 91.2005 43.1077 91.2174 43.2914C91.2284 43.4214 91.2682 43.5474 91.3339 43.6609C91.3996 43.7745 91.4897 43.8727 91.5981 43.949C91.6926 44.0149 91.7999 44.0611 91.9134 44.0848C92.027 44.1084 92.1443 44.109 92.258 44.0866C92.3746 44.0633 92.4849 44.0167 92.582 43.9497C92.6791 43.8827 92.7608 43.7967 92.8221 43.6973C92.8864 43.5983 92.9296 43.4878 92.9492 43.3722C92.9689 43.2567 92.9645 43.1384 92.9363 43.0245C92.9103 42.916 92.8621 42.8137 92.7948 42.7237C92.7275 42.6336 92.6423 42.5577 92.5443 42.5004ZM95.356 39.9114C95.16 39.7937 94.9246 39.7554 94.7001 39.8047C94.4757 39.8541 94.2798 39.9872 94.1546 40.1755V40.1755C94.0571 40.3329 94.0136 40.5165 94.0305 40.6996C94.0417 40.8297 94.0815 40.9559 94.1472 41.0696C94.2129 41.1834 94.3029 41.2819 94.4112 41.3586C94.5057 41.4245 94.613 41.4707 94.7265 41.4943C94.84 41.518 94.9573 41.5186 95.0711 41.4962C95.1875 41.4724 95.2976 41.4256 95.3946 41.3587C95.4916 41.2917 95.5735 41.206 95.6352 41.1068C95.6994 41.0076 95.7426 40.8969 95.7623 40.7811C95.7819 40.6653 95.7775 40.5469 95.7494 40.4328C95.7229 40.3244 95.6745 40.2223 95.6069 40.1325C95.5393 40.0427 95.454 39.9671 95.356 39.91V39.9114ZM87.7768 43.9311C90.1803 42.3136 92.2596 40.2803 93.9121 37.9318V37.9318L93.9431 37.8809L94.0531 37.7268L94.0446 37.7172C95.7071 35.0208 97.825 30.9075 97.825 25.6785C97.825 19.9323 96.4149 15.6594 93.255 11.8735L93.1873 11.7993C93.1379 11.7415 93.0886 11.6809 93.0392 11.6218C91.8193 10.2627 90.4117 9.07565 88.857 8.09453C86.4169 6.54866 83.664 5.5342 80.7857 5.1203C77.9094 4.7162 74.978 4.91077 72.1843 5.69121C70.7886 6.07937 69.4399 6.613 68.1614 7.28288C64.3124 9.32551 61.2378 12.5204 59.3907 16.3968C58.9671 17.2968 58.6136 18.2266 58.3332 19.1784C57.9963 17.6463 57.5061 16.1502 56.8695 14.7116C56.9018 14.7337 56.9358 14.7535 56.971 14.7707V14.7707C57.0963 14.83 57.2337 14.8611 57.3729 14.8615C57.4712 14.8615 57.5689 14.8457 57.662 14.8148C57.7665 14.7809 57.8631 14.7269 57.9459 14.656C58.0287 14.5851 58.0962 14.4988 58.1442 14.402C58.2574 14.2048 58.2862 13.9719 58.2245 13.754C58.1627 13.5361 58.0153 13.3507 57.8143 13.2382C57.7113 13.1798 57.5974 13.142 57.4792 13.1271C57.361 13.1122 57.241 13.1205 57.1262 13.1515C57.0085 13.1829 56.8985 13.237 56.8028 13.3108C56.7071 13.3845 56.6277 13.4764 56.5692 13.5808C56.5219 13.6763 56.4923 13.7792 56.4818 13.8848C52.5336 5.8219 44.0844 0.236617 34.3282 0.236617C33.3972 0.236287 32.4669 0.287268 31.5419 0.389319C31.4417 0.400324 31.343 0.409954 31.2443 0.423711C24.9994 1.19085 19.2992 4.28093 15.3331 9.04926L15.13 9.2955C15.0257 9.42482 14.9228 9.55138 14.8227 9.68069C14.6121 9.94758 14.4104 10.2158 14.2177 10.4855C14.1233 10.623 14.0302 10.751 13.9357 10.8844C13.4915 11.5282 13.0897 12.1831 12.7231 12.8351C12.5299 13.1832 12.3466 13.5395 12.1703 13.8985C12.0293 14.1998 11.8883 14.5038 11.7473 14.812C11.6881 14.9496 11.6317 15.0871 11.5724 15.2247C11.5724 15.2412 11.5598 15.2577 11.5513 15.2756C11.4892 15.4297 11.4258 15.5851 11.3652 15.7392C11.2862 15.9469 11.2072 16.1519 11.1339 16.3624C11.0437 16.6141 10.9577 16.8673 10.8801 17.1232C10.8392 17.2483 10.8011 17.3735 10.7617 17.5028C10.4848 18.4219 10.2668 19.3569 10.1088 20.3024C10.058 20.605 10.0143 20.9077 9.97624 21.2131C9.25147 20.3285 8.80166 18.8414 8.80166 17.2236C8.80166 15.2976 9.43196 13.5574 10.4063 12.7939L10.6432 12.6095V0H0V12.604L0.238302 12.7856C1.21266 13.5491 1.84296 15.2866 1.84296 17.2153C1.84296 19.144 1.20984 20.8815 0.238302 21.6437L0.00282007 21.8307V48.0568H10.6488V30.4123C11.1418 32.2026 11.8484 33.9304 12.7541 35.5601C12.96 35.9288 13.1771 36.2878 13.3943 36.6427C13.8257 37.3306 14.2896 37.9909 14.7789 38.6251C14.848 38.7145 14.9199 38.8053 14.9905 38.8934C15.061 38.9814 15.1526 39.097 15.2358 39.1974C15.3923 39.3859 15.5488 39.573 15.7124 39.7559C15.828 39.8935 15.9465 40.0214 16.0663 40.1507C19.6795 44.1175 24.5532 46.7858 29.9062 47.728C29.995 47.7431 30.0824 47.7597 30.1699 47.772C30.2573 47.7844 30.3109 47.7982 30.3884 47.8078C30.4913 47.8257 30.5985 47.8408 30.7043 47.856L30.7889 47.8697C31.9616 48.0332 33.1449 48.115 34.3296 48.1146C38.3242 48.1137 42.2582 47.1607 45.7893 45.3386C49.3205 43.5165 52.3419 40.8803 54.5909 37.6594C54.5782 37.68 54.5641 37.7006 54.55 37.7199C55.1163 38.5506 55.7366 39.3451 56.407 40.0985C60.2405 44.385 65.5573 47.1448 71.3431 47.8512C77.129 48.5575 82.9789 47.1612 87.7768 43.9284V43.9311ZM1.26624 1.23674H9.37978V9.80451H1.26624V1.23674ZM1.26624 11.8295V10.7496H9.37837V11.835L1.26624 11.8295ZM8.73961 21.6492H1.90359C2.67067 20.5266 3.10638 18.9336 3.10638 17.2126C3.10638 15.4916 2.67067 13.904 1.90359 12.7856H8.74102C7.97535 13.9096 7.53964 15.4998 7.53964 17.2236C7.53964 18.9473 7.97535 20.5321 8.74102 21.6547L8.73961 21.6492ZM9.37696 46.8242H1.26483V44.4965H9.37837L9.37696 46.8242ZM9.37696 43.5514H1.26483V41.9144H9.37837L9.37696 43.5514ZM9.37696 40.9679H1.26483V22.6011H9.37837L9.37696 40.9679ZM34.3352 46.8833C30.4426 46.886 26.6118 45.9337 23.1952 44.1139C19.7786 42.2941 16.8859 39.6653 14.7832 36.4694C14.5815 36.1681 14.3912 35.8614 14.2036 35.5518C13.6616 34.6456 13.1848 33.7037 12.7766 32.7331C12.6088 32.3327 12.4453 31.9076 12.2888 31.455C10.7883 27.1459 10.6541 22.4955 11.9038 18.1109C12.0237 17.6982 12.1576 17.2676 12.3043 16.8508C12.6591 15.8338 13.0884 14.8431 13.5888 13.8862C13.7482 13.5794 13.9146 13.2767 14.088 12.981C16.1228 9.4917 19.0665 6.58897 22.621 4.5667C26.1756 2.54443 30.2148 1.47445 34.3296 1.4651C47.1612 1.4651 57.607 11.6534 57.607 24.1749C57.607 36.6964 47.164 46.8847 34.3296 46.8847L34.3352 46.8833ZM71.4948 46.5339C68.7835 46.2297 66.1537 45.4367 63.7394 44.1953C61.3173 42.9523 59.1349 41.3082 57.2897 39.3363C56.528 38.5234 55.8326 37.6536 55.2099 36.7349C55.1901 36.7679 55.1676 36.7996 55.1464 36.8312C55.6496 36.0457 56.1063 35.2327 56.5142 34.3963L56.4803 34.4692C56.5849 34.5524 56.7073 34.6116 56.8385 34.6425C56.9035 34.6556 56.9696 34.6625 57.0359 34.6631C57.1963 34.6628 57.3533 34.6179 57.4885 34.5338V34.5338C57.6842 34.4149 57.8246 34.2262 57.8802 34.008C57.9357 33.7897 57.902 33.5589 57.7861 33.3645C57.7162 33.2575 57.6234 33.1664 57.5142 33.0976C57.4049 33.0287 57.2817 32.9837 57.1529 32.9655C57.6127 31.8344 57.9823 30.6703 58.2584 29.4837C58.3642 29.8166 58.4869 30.1399 58.6081 30.459L58.7491 30.8429C58.8124 31.016 58.8868 31.1851 58.9719 31.3491L59.2074 31.8265C59.254 31.9131 59.2977 32.0026 59.34 32.0906C59.4478 32.3282 59.5727 32.558 59.7136 32.7784L60.2777 33.6809C60.4064 33.8783 60.5452 34.0693 60.6936 34.2532C60.7698 34.3495 60.8459 34.4472 60.9164 34.5435C61.2272 34.9646 61.5689 35.3632 61.9387 35.7362C62.0713 35.8737 62.2066 36.0113 62.342 36.1681C62.5084 36.3318 62.6875 36.49 62.8637 36.6455C62.9568 36.7253 63.0485 36.8078 63.1457 36.8904L63.5476 37.248C63.6407 37.3265 63.738 37.3952 63.8296 37.4654C63.8804 37.5012 63.9312 37.5369 63.9819 37.5768L64.8632 38.2138C65.0634 38.339 65.2651 38.46 65.4709 38.5797L66.2662 39.0474L67.744 39.7353L69.2852 40.2787L70.8828 40.6749L72.4959 40.9115C72.6144 40.9225 72.7314 40.9294 72.8498 40.9335L74.1344 40.9927C75.34 40.9665 76.9207 40.8785 78.4394 40.452C79.0132 40.3168 79.5763 40.1417 80.1244 39.9279L80.5065 39.7903C80.6839 39.729 80.8568 39.6559 81.024 39.5716L81.5119 39.3405L81.784 39.2112C82.028 39.1069 82.2637 38.985 82.4891 38.8466L83.4113 38.2963C83.6141 38.1696 83.8095 38.0318 83.9964 37.8836C84.0966 37.8093 84.1939 37.7364 84.2912 37.6676C84.7226 37.3647 85.1307 37.0313 85.5123 36.6703C85.6533 36.5409 85.7943 36.413 85.9508 36.2782C86.1214 36.1159 86.2808 35.9425 86.4387 35.7706C86.5219 35.6798 86.6051 35.589 86.6897 35.4954L87.0549 35.102C87.1339 35.0126 87.2086 34.9163 87.2791 34.82L88.0448 33.8185C88.1688 33.6245 88.2915 33.4264 88.4128 33.2297L88.895 32.4524L89.6001 31.0134L90.1641 29.5139L90.2811 29.071C90.2811 29.071 90.8282 27.5137 90.8282 24.8435C90.8282 22.2641 90.1232 20.4413 90.0837 20.3134C89.6201 19.0603 88.9447 17.8918 88.0856 16.8563C87.1742 15.7329 86.0783 14.7646 84.8425 13.9907C84.7367 13.9302 84.631 13.8669 84.5252 13.8022C84.325 13.6826 84.1163 13.5574 83.8949 13.4501L82.9079 12.9865L81.8813 12.6233C81.6536 12.5462 81.4215 12.4819 81.1862 12.4307C81.0649 12.4032 80.9436 12.3715 80.8167 12.3371C79.3877 12.0196 77.9159 11.9267 76.4568 12.062C75.0007 12.2213 73.5817 12.615 72.2576 13.2272C70.9281 13.8369 69.7157 14.6647 68.6732 15.6746C67.6373 16.6828 66.7797 17.8514 66.1351 19.133C65.4852 20.4077 65.069 21.7835 64.9055 23.1982C64.8747 23.3802 64.8573 23.564 64.8533 23.7485L64.8265 24.2781C64.8265 24.3372 64.8265 24.3978 64.8181 24.4583C64.8089 24.5782 64.8061 24.6985 64.8096 24.8187L64.8378 25.3401C64.8455 25.5932 64.8738 25.8453 64.9224 26.094C64.9422 26.2027 64.9605 26.31 64.976 26.4269C65.0211 26.6828 65.0931 26.9359 65.1607 27.1822L65.2425 27.4821C65.7046 28.861 66.4835 30.1187 67.5198 31.1593C68.5671 32.1863 69.8456 32.9607 71.2536 33.4209C73.3792 34.1096 75.6869 34.0355 77.7614 33.2118C79.8359 32.3881 81.5409 30.869 82.5695 28.9279C83.2422 27.6404 83.6003 26.2184 83.6157 24.7733C83.623 24.0299 83.4798 23.2923 83.1945 22.6029C82.9091 21.9135 82.4871 21.2857 81.9527 20.7557C81.4183 20.2256 80.7819 19.8036 80.0801 19.5138C79.3783 19.224 78.6247 19.0722 77.8626 19.067C77.8547 19.0678 77.8466 19.0678 77.8387 19.067C76.6943 19.0611 75.575 19.394 74.6286 20.0218C73.6822 20.6497 72.9533 21.5428 72.5382 22.5832C72.2704 23.266 72.1471 23.9947 72.1758 24.7252L72.1843 24.8999H72.7624L72.7709 24.7238C72.8258 23.4336 73.3866 22.2132 74.3375 21.3149C75.2542 20.4498 76.4773 19.9625 77.7527 19.9543C77.7817 19.9516 77.811 19.9516 77.8401 19.9543C78.4824 19.9586 79.1175 20.0868 79.7088 20.3314C80.3001 20.5761 80.836 20.9324 81.2857 21.3799C81.7353 21.8274 82.0898 22.3573 82.3287 22.9389C82.5677 23.5206 82.6864 24.1426 82.678 24.7692C82.6596 26.0698 82.3329 27.3487 81.7234 28.5056C80.7951 30.2412 79.2631 31.5972 77.4024 32.3302C75.5417 33.0631 73.4742 33.125 71.5709 32.5047C70.3139 32.088 69.174 31.3908 68.2417 30.4687C67.3229 29.5377 66.6346 28.414 66.2296 27.1835C66.2042 27.0831 66.176 26.9841 66.1492 26.8836C66.0914 26.6732 66.0307 26.453 65.9941 26.2453C65.98 26.138 65.9617 26.0293 65.9447 25.922C65.9039 25.71 65.8803 25.4952 65.8742 25.2796L65.8503 24.7857C65.847 24.6857 65.8493 24.5856 65.8573 24.4858C65.8573 24.4239 65.8644 24.3648 65.8672 24.3056L65.8954 23.7897C65.8987 23.632 65.9138 23.4748 65.9405 23.3192C66.0949 22.0159 66.4835 20.7492 67.0883 19.5774C67.685 18.4015 68.4763 17.3297 69.4304 16.405C70.3883 15.4878 71.4993 14.7365 72.7159 14.1833C73.9302 13.6255 75.2311 13.2685 76.5654 13.1268C77.8995 13.0063 79.2448 13.095 80.5502 13.3895C80.6715 13.4212 80.7928 13.4528 80.914 13.4803C81.1192 13.5252 81.3212 13.5827 81.519 13.6523L82.4595 13.988L83.3774 14.4213C83.565 14.5121 83.7426 14.6208 83.9231 14.7308C84.0289 14.7955 84.1346 14.8602 84.2347 14.9166C85.3573 15.6238 86.3525 16.507 87.1804 17.5304C87.2537 17.6308 87.3298 17.7271 87.406 17.8234C87.5362 17.9838 87.6581 18.1505 87.7712 18.3227L88.2901 19.1592L88.7301 20.0547C88.8171 20.2409 88.8938 20.4315 88.9599 20.6256C89.0008 20.7426 89.0417 20.8581 89.084 20.9613C89.5056 22.1986 89.7194 23.4942 89.7171 24.7981L89.6522 25.9771C89.6522 26.0816 89.6438 26.1862 89.6353 26.2797L89.4027 27.7434L89.0248 29.1783L88.503 30.5691L87.8389 31.9076L87.3707 32.6546C87.2608 32.8293 87.1508 33.0082 87.045 33.1719L86.4316 33.9712C86.3936 34.0193 86.3583 34.0675 86.3216 34.1087C86.2582 34.1899 86.1962 34.2738 86.1313 34.3495L85.7872 34.7154C85.6998 34.8048 85.6166 34.8956 85.532 34.9905C85.391 35.1446 85.25 35.3001 85.109 35.439C84.968 35.578 84.8157 35.6949 84.6719 35.8228C84.3243 36.1491 83.9524 36.4498 83.5593 36.7225C83.4592 36.7927 83.3605 36.8601 83.2618 36.9399C83.0949 37.069 82.9208 37.1889 82.7401 37.2989L81.8588 37.8231C81.6638 37.9452 81.4592 38.0519 81.2468 38.1422C81.1537 38.1849 81.0621 38.2262 80.9733 38.2688L80.5108 38.4875C80.3656 38.5607 80.2153 38.6237 80.0609 38.676L79.6562 38.8136C79.1596 39.0059 78.6492 39.1627 78.1291 39.2827C76.736 39.672 75.2597 39.749 74.1443 39.7738L72.9429 39.7119C72.8357 39.7119 72.7286 39.7023 72.6313 39.6926L71.1352 39.4739L69.6673 39.1038L68.246 38.5948L66.8838 37.9538L65.5922 37.182L64.6277 36.4763C64.5445 36.4171 64.4599 36.3552 64.3838 36.2906L64.0087 35.9563C63.9185 35.8737 63.8268 35.7939 63.7352 35.7128C63.5758 35.5752 63.4151 35.4376 63.2712 35.2918C63.1274 35.146 63.0118 35.0084 62.8778 34.8681C62.5447 34.5324 62.2379 34.1728 61.9599 33.7923C61.8866 33.6947 61.8118 33.597 61.7357 33.5021C61.6045 33.3403 61.4816 33.1723 61.3676 32.9986L60.8346 32.1388C60.7093 31.948 60.5994 31.7479 60.5061 31.5403C60.4638 31.4509 60.4215 31.3642 60.3778 31.2776L60.1536 30.8291C60.0787 30.6874 60.0142 30.5408 59.9604 30.3903L59.8109 29.9927C59.6155 29.51 59.4553 29.0144 59.3315 28.5097C59.0376 27.4315 58.8744 26.3234 58.845 25.2081C58.845 25.2081 58.845 25.2081 58.845 25.2081C58.8591 24.8655 58.869 24.5202 58.869 24.1777C58.869 23.9741 58.869 23.7732 58.8605 23.5696V23.56C59.0175 21.0891 59.6818 18.6742 60.8139 16.4587C61.9461 14.2432 63.5231 12.2723 65.4512 10.6629C67.5119 8.93131 69.9325 7.6557 72.5467 6.92382C75.1581 6.18803 77.9012 6.00881 80.5898 6.39832C83.2785 6.78783 85.8498 7.73696 88.1294 9.18132C89.7924 10.2314 91.2749 11.5314 92.5217 13.0332C95.2756 16.4903 96.5108 20.4248 96.5108 25.6758C96.5108 30.2472 94.768 33.945 93.2507 36.5024V36.4928V36.5052C93.2366 36.5313 93.2225 36.5533 93.2084 36.5767C90.089 41.3292 85.2145 44.7282 79.5956 46.0689C76.9436 46.6951 74.1982 46.853 71.4891 46.5353L71.4948 46.5339ZM34.3296 2.12543C30.9268 2.12102 27.5674 2.86971 24.5041 4.31515C21.4408 5.76059 18.7535 7.86512 16.6445 10.4703C16.3512 10.8294 16.0692 11.1967 15.8055 11.5709C15.3063 12.2664 14.8477 12.9889 14.4321 13.7348C14.253 14.0567 14.0838 14.3842 13.9216 14.7143C12.4711 17.6689 11.7216 20.9044 11.729 24.1804C11.7319 27.8399 12.6687 31.441 14.4546 34.659C14.6422 34.9961 14.8396 35.3276 15.044 35.6536C19.1981 42.2707 26.4092 46.2203 34.3296 46.2203C46.7918 46.2203 56.9316 36.3291 56.9316 24.1708C56.9316 12.0125 46.7918 2.12543 34.3296 2.12543ZM34.3296 44.989C30.5813 44.9784 26.9015 44.0084 23.6579 42.1758C20.4142 40.3433 17.7202 37.7125 15.845 34.5462C15.6391 34.1968 15.4431 33.8446 15.264 33.4979C14.6635 32.3317 14.1768 31.113 13.8102 29.8579C13.6791 29.4053 13.5705 28.9829 13.4774 28.5661C13.1583 27.1231 12.9972 25.6511 12.9966 24.1749C12.997 23.1032 13.0809 22.033 13.2476 20.9737C13.3125 20.561 13.3971 20.1483 13.5113 19.6393C13.8158 18.3169 14.2522 17.0268 14.8142 15.7874C14.9665 15.4517 15.1357 15.0995 15.3162 14.7597C17.0917 11.3276 19.8097 8.44425 23.1671 6.43145C26.5244 4.41865 30.389 3.35556 34.3296 3.3608C46.0938 3.3608 55.6639 12.6976 55.6639 24.1749C55.6639 35.6523 46.0938 44.989 34.3296 44.989ZM48.0072 30.8649C47.7337 30.0766 47.5179 29.2966 47.7689 28.4615C47.9099 27.9856 47.7351 27.577 47.4221 27.2234C47.1928 26.9613 46.9383 26.7213 46.662 26.5067C46.0613 26.0486 45.5636 25.5176 45.393 24.7582C45.3506 24.5342 45.2931 24.3131 45.2209 24.0965C44.922 23.3 44.6766 23.1253 43.8701 23.3069C43.8275 23.3074 43.785 23.3115 43.7432 23.3192C43.5317 23.4142 43.4048 23.3082 43.2863 23.1542C42.7658 22.4654 42.1488 21.8513 41.4532 21.33C40.266 20.4647 38.9588 19.9378 37.4472 20.0424C36.0865 20.1332 34.7499 20.4384 33.4892 20.9462C33.2762 21.0315 33.0379 21.1374 32.856 20.9737C32.7037 20.8361 32.7785 20.6009 32.8166 20.411C32.997 19.5265 33.1874 18.6419 33.3707 17.7573C33.5442 16.9319 33.7105 16.09 33.8868 15.2577C33.9559 14.9276 33.9926 14.9193 34.3028 15.0954C34.5223 15.2239 34.7641 15.3121 35.0163 15.3554C35.7523 15.4765 36.4588 15.6305 37.1074 16.0556C37.6263 16.3927 38.2566 16.5302 38.8686 16.6733C39.0702 16.7215 39.1308 16.6389 39.1506 16.4546C39.1661 16.2331 38.9856 16.2592 38.8686 16.24C38.3487 16.1729 37.8517 15.9898 37.4162 15.7048C37.3288 15.6443 37.2244 15.6016 37.2399 15.471C37.2808 15.1408 37.302 14.8065 37.3711 14.4832C37.3934 14.4094 37.4314 14.341 37.4825 14.2824C37.5336 14.2238 37.5967 14.1763 37.6678 14.143C37.7389 14.1097 37.8163 14.0913 37.8952 14.089C37.974 14.0867 38.0525 14.1005 38.1255 14.1297C38.5795 14.3346 39.0223 14.5671 39.5172 14.6662C39.8443 14.7322 39.8965 14.6662 39.8669 14.336C39.8486 14.1379 39.6921 14.142 39.5722 14.109C39.1026 13.9797 38.5993 13.9866 38.1523 13.7706C38.0197 13.7073 37.8702 13.6482 37.8702 13.4666C37.8451 13.0291 37.9 12.5907 38.0324 12.1721C38.1156 11.9368 38.258 11.8735 38.4977 11.9313C38.7783 11.9926 39.0488 12.0917 39.3015 12.2257C39.6808 12.4376 40.0643 12.6384 40.4225 12.886C40.6453 13.0374 40.7567 12.8572 40.8455 12.7664C40.9343 12.6756 40.7693 12.604 40.6974 12.5476C39.8006 11.8598 38.736 11.5241 37.6601 11.2146C36.9875 11.022 36.3022 10.872 35.6776 10.5405C35.3956 10.3905 35.3025 10.1883 35.2898 9.88567C35.2701 9.39868 35.4181 8.94608 35.5394 8.48935C35.2701 8.39993 35.1333 8.46872 35.0755 8.74248C34.9161 9.4826 34.7371 10.2186 34.5622 10.956C34.0532 13.1172 33.4934 15.2674 33.0436 17.4423C33.0238 17.5805 32.9735 17.7128 32.8961 17.8302C32.8187 17.9475 32.7161 18.0471 32.5954 18.1219C32.4747 18.1967 32.3388 18.2451 32.1971 18.2636C32.0553 18.2822 31.9111 18.2704 31.7745 18.2292C31.4065 18.1425 31.3515 18.0476 31.5108 17.7092C31.5582 17.6282 31.5938 17.5411 31.6166 17.4506C31.649 17.1754 31.6885 16.8824 31.4164 16.6747C31.3256 16.601 31.2146 16.5551 31.0972 16.5426C30.9799 16.5301 30.8613 16.5516 30.7564 16.6045C30.4744 16.7311 30.3334 17.0461 30.38 17.4533C30.3941 17.5689 30.4744 17.7491 30.2996 17.7739C29.8878 17.8316 29.5114 18.0627 29.0883 18.0297C28.7809 18.0063 28.6879 18.1549 28.6738 18.4053C28.6798 18.5837 28.6163 18.7577 28.4961 18.8923C28.3636 19.0188 28.2028 19.089 28.0815 18.8689C28.0489 18.8026 28.0302 18.7306 28.0265 18.6571C28.0229 18.5836 28.0344 18.5101 28.0604 18.4411C28.0945 18.3095 28.1064 18.1733 28.0956 18.038C28.0956 17.8234 27.894 17.8413 27.7657 17.8137C27.5866 17.7766 27.6331 17.9513 27.6247 18.0284C27.6268 18.2139 27.5868 18.3976 27.5076 18.5662C27.3427 18.3475 27.2002 18.1632 26.9605 18.0985C26.7208 18.0339 26.6997 17.9114 26.7871 17.7037C26.8294 17.6366 26.8543 17.5604 26.8597 17.4818C26.8651 17.4032 26.8509 17.3245 26.8181 17.2525C26.7659 17.1589 26.718 17.097 26.601 17.1149C26.4839 17.1328 26.4219 17.1644 26.4134 17.2869C26.405 17.4093 26.3683 17.5111 26.3542 17.6239C26.3345 17.7862 26.247 17.7532 26.161 17.6886C26.075 17.6239 26.02 17.5579 25.9509 17.4946C25.5279 17.1039 25.064 16.7737 24.4365 16.7902C24.304 16.7902 24.2363 16.7421 24.2363 16.6086C24.2354 16.5567 24.2287 16.5051 24.2165 16.4546C24.1714 16.2372 24.0107 16.2042 23.8259 16.2386C23.6144 16.2771 23.6384 16.4229 23.6849 16.577C23.8259 17.0901 23.7822 17.163 23.2619 17.3405C23.1322 17.3859 23.0025 17.4354 22.8699 17.4781C22.6034 17.5537 22.4272 17.6693 22.5555 17.9843C22.5752 18.075 22.5752 18.1688 22.5555 18.2595C22.5153 18.5385 22.564 18.8229 22.6949 19.0741C22.8257 19.3253 23.0326 19.5312 23.2873 19.664C23.5693 19.8291 23.5862 20.0093 23.4438 20.2528C23.3691 20.378 23.2831 20.4977 23.2041 20.6201C23.0571 20.8127 22.9678 21.0413 22.9461 21.2805C22.9461 21.4607 22.9898 21.5941 23.1844 21.6271C23.2282 21.641 23.2746 21.6458 23.3205 21.641C23.3664 21.6362 23.4107 21.6221 23.4506 21.5995C23.4905 21.577 23.5251 21.5464 23.5521 21.5099C23.5791 21.4735 23.598 21.4318 23.6074 21.3878C23.6471 21.247 23.668 21.1018 23.6694 20.9558C23.6864 20.3794 24.005 20.0754 24.5775 20.0712C24.7269 20.0876 24.8782 20.0711 25.0203 20.0231C25.0908 19.9915 25.1613 19.986 25.2022 20.0809C25.3742 20.4729 25.2233 21.2557 24.892 21.579C24.6424 21.8211 24.3618 22.033 24.115 22.2778C23.3634 23.018 23.1533 23.9177 23.3395 24.9205C23.3959 25.2287 23.5961 25.4708 23.7992 25.695C23.9825 25.9028 24.0149 26.0596 23.7343 26.2453C23.2885 26.5312 22.8749 26.8623 22.5005 27.2331C21.5036 28.2318 21.2244 29.4562 21.3174 30.8016C21.3752 31.6421 21.4669 32.4868 21.1426 33.304C21.0891 33.4824 21.069 33.6688 21.0834 33.8542C21.0834 34.0702 21.1482 34.2587 21.3936 34.2903C21.4471 34.3005 21.5021 34.2998 21.5553 34.2883C21.6085 34.2767 21.6587 34.2545 21.7026 34.2231C21.7466 34.1917 21.7835 34.1518 21.8108 34.1058C21.8382 34.0599 21.8555 34.0089 21.8617 33.956C21.9604 33.4154 22.1028 32.883 22.1296 32.3272C22.1733 31.4317 21.9632 30.5388 22.1296 29.6405C22.2706 28.8715 22.5287 28.1947 23.1999 27.6884C23.6292 27.3833 24.0987 27.1362 24.5958 26.9538C24.7721 26.8809 24.8567 26.6057 25.0301 26.647C25.2036 26.6883 25.2924 26.9153 25.4532 27.013C25.5942 27.0955 25.5646 27.1615 25.5082 27.2578C25.3687 27.4663 25.1965 27.652 24.9977 27.8081C24.7228 28.0502 24.4971 28.3254 24.445 28.6954C24.3814 29.1096 24.4122 29.5323 24.5352 29.9335C24.8172 30.8112 25.0132 31.6985 24.9766 32.6299C24.9582 33.0976 25.0005 33.5695 25.0245 34.0386C25.04 34.3385 25.1162 34.6136 25.4193 34.7732C25.7521 34.9493 26.0299 34.8282 26.0003 34.4375C25.9382 33.6479 25.7817 32.8747 25.6407 32.0989C25.4743 31.1882 25.3023 30.2747 25.4165 29.3475C25.4884 28.7477 25.7465 28.2621 26.319 27.9608C26.694 27.7641 27.0959 27.5756 27.3723 27.2606C27.8038 26.7667 28.3227 26.5975 28.9642 26.6429C29.1512 26.664 29.3405 26.6388 29.5148 26.5695C29.6891 26.5003 29.8426 26.3892 29.9612 26.2467C29.9975 26.196 30.0517 26.1603 30.1134 26.1463C30.9256 25.9674 31.1005 26.1215 30.9891 26.9263V26.9579C30.8396 28.0392 30.5111 29.0847 30.3306 30.1605C30.1699 31.1139 29.9809 32.0658 29.9569 33.0371C29.9569 33.1471 29.9019 33.3122 30.0683 33.3535C30.2347 33.3948 30.3109 33.2627 30.3644 33.1306C30.4116 33.0261 30.4525 32.9191 30.4871 32.8101C30.6603 32.1336 30.7679 31.4427 30.8086 30.7466C30.9179 29.2838 31.1124 27.8283 31.391 26.387C31.4742 25.9454 31.6631 25.629 32.1369 25.4818C32.5187 25.3488 32.8817 25.169 33.217 24.9467C33.2822 24.8928 33.3603 24.8559 33.444 24.8394C34.142 24.8394 34.7328 24.5065 35.3547 24.2698C35.5675 24.171 35.8016 24.1238 36.0372 24.1323C36.0961 24.1311 36.1539 24.1481 36.2024 24.1806C36.251 24.2132 36.2879 24.2598 36.3079 24.3139C36.3572 24.4432 36.2444 24.501 36.1598 24.5574C36.0104 24.6578 35.8538 24.7472 35.7058 24.8462C35.6665 24.8745 35.6383 24.915 35.626 24.9611C35.6137 25.0072 35.6179 25.056 35.6381 25.0994C35.6607 25.1723 35.7283 25.1792 35.796 25.1627C35.9656 25.1112 36.1476 25.1147 36.3149 25.1728C36.4822 25.2308 36.6257 25.3402 36.7239 25.4846C36.8011 25.5559 36.8922 25.6116 36.9918 25.6483C37.3866 25.8574 37.7885 26.0513 38.1748 26.2728C38.4864 26.4503 38.8108 26.6209 38.9983 26.9469C39.3861 27.6238 39.2549 28.2469 38.6472 28.9348C37.8886 29.7946 37.0679 30.6076 36.4433 31.5747C36.0513 32.1814 35.6353 32.7771 35.3603 33.4484C35.2193 33.7799 35.3251 33.9189 35.6846 33.9161C36.0047 33.9161 36.1077 33.8047 36.1415 33.414C36.1343 33.2042 36.2043 32.9987 36.3389 32.8348C36.6722 32.4827 36.9597 32.0918 37.1948 31.671C37.8519 30.5608 38.6317 29.5525 39.7033 28.7821C39.8802 28.6716 40.0202 28.5132 40.1061 28.3263C40.192 28.1393 40.2201 27.932 40.187 27.7297C40.1606 27.4499 40.1058 27.1735 40.0234 26.9043C39.9501 26.7077 39.9217 26.4978 39.9402 26.2893C39.9712 25.9647 40.266 25.5148 40.5155 25.4791C40.7651 25.4433 40.9837 25.6166 41.1346 25.7982C41.6394 26.4255 42.2288 26.9964 42.5291 27.7641C42.5943 27.8951 42.6748 28.0183 42.7688 28.1314C42.867 28.2557 42.9378 28.3984 42.9769 28.5506C43.016 28.7028 43.0224 28.8612 42.9958 29.0159C42.8266 29.8799 42.6983 30.7548 42.35 31.5775C42.2947 31.7227 42.2563 31.8736 42.2358 32.0273C42.178 32.3726 42.1992 32.7496 41.9453 33.0343C41.6633 33.3466 41.4998 33.7222 41.3122 34.0771C41.1515 34.3852 41.2333 34.6067 41.5054 34.7168C41.5718 34.7486 41.6442 34.7665 41.7181 34.7693C41.792 34.7721 41.8657 34.7598 41.9344 34.7331C42.0031 34.7064 42.0653 34.6659 42.117 34.6143C42.1687 34.5627 42.2087 34.501 42.2344 34.4334C42.4168 33.9463 42.5527 33.4439 42.6405 32.9325C42.7646 32.2227 42.9451 31.5403 43.4005 30.9419C43.6233 30.6475 43.8391 30.3146 43.8504 29.9239C43.855 29.6223 43.8976 29.3225 43.9773 29.0311C44.2029 28.2456 43.9632 27.6224 43.2976 27.1423C43.2553 27.112 43.2172 27.0735 43.1763 27.0391C42.7322 26.6594 42.6814 26.2577 43.1044 25.8643C43.3104 25.6896 43.4689 25.4679 43.5658 25.219C43.6627 24.9701 43.6951 24.7017 43.66 24.4377C43.6505 24.3764 43.6609 24.3137 43.6897 24.2584C43.7185 24.2032 43.7643 24.1581 43.8207 24.1295C43.8903 24.0765 43.9708 24.0387 44.0567 24.0187C44.1425 23.9986 44.2318 23.9968 44.3185 24.0134C44.4051 24.03 44.4871 24.0645 44.5589 24.1147C44.6306 24.1649 44.6905 24.2295 44.7345 24.3042C44.9318 24.5919 45.0241 24.9359 44.9967 25.281C44.9754 25.4522 44.9901 25.6259 45.0398 25.7915C45.0894 25.957 45.1732 26.111 45.2858 26.2439C45.5779 26.6036 45.9 26.939 46.2489 27.2468C46.8933 27.7847 47.14 28.4505 47.0822 29.2732C47.0371 29.9308 46.9765 30.6062 47.336 31.2267C47.7227 31.8948 47.8789 32.6664 47.7816 33.4278C47.7508 33.6137 47.7595 33.8038 47.807 33.9863C47.8507 34.1307 47.9015 34.2766 48.0679 34.3137C48.1473 34.3271 48.2291 34.3173 48.3029 34.2855C48.3766 34.2536 48.4391 34.2012 48.4824 34.1349C48.5852 34.0078 48.6595 33.861 48.7003 33.7041C48.7411 33.5472 48.7476 33.3837 48.7193 33.2242C48.6037 32.3988 48.2751 31.6394 48.0072 30.8649V30.8649ZM24.3632 19.8016C24.1305 19.7658 23.9106 19.6929 24.0036 19.3889C23.9937 19.3036 24.0784 19.2004 23.9599 19.1619C23.9177 19.1534 23.8738 19.1592 23.8356 19.1785C23.7973 19.1978 23.767 19.2293 23.7498 19.2678C23.7019 19.349 23.6398 19.4054 23.5425 19.3586C23.0814 19.166 22.633 18.6625 22.8375 18.1205C22.8826 17.9981 22.9334 17.9321 23.0927 17.9706C23.3747 18.0394 23.6793 18.0682 23.9684 18.1343C24.3068 18.2113 25.0358 19.023 25.0668 19.3339C25.0837 19.5499 24.6621 19.8401 24.3632 19.8016ZM30.05 18.9556C29.9696 19.3394 29.8977 19.7191 29.6072 20.0327C29.4479 20.2074 29.5255 20.4743 29.517 20.7027C29.5057 21.0163 29.438 21.0562 29.1588 20.9173C29.0436 20.8733 28.9464 20.7936 28.8822 20.6904C28.818 20.5873 28.7904 20.4664 28.8035 20.3464C28.8162 20.1813 28.8035 20.0135 28.8035 19.7631C28.7944 19.4685 28.8175 19.1738 28.8726 18.884C28.89 18.7713 28.938 18.6652 29.0115 18.5766C29.0851 18.488 29.1816 18.4202 29.291 18.3803C29.4004 18.3403 29.5188 18.3296 29.6339 18.3492C29.749 18.3688 29.8566 18.4181 29.9457 18.492C30.0018 18.5529 30.0408 18.627 30.0591 18.707C30.0774 18.787 30.0743 18.8702 30.05 18.9487V18.9556ZM32.0114 20.6999C31.9771 20.7258 31.9483 20.7581 31.9268 20.7949C31.8126 20.9709 31.7209 21.1787 31.4375 21.07C31.1541 20.9613 30.8636 20.7866 30.8735 20.4619C30.8932 20.0093 30.9186 19.5457 31.1231 19.1193C31.222 18.8961 31.4074 18.7201 31.6388 18.6297C31.8701 18.5392 32.1287 18.5416 32.3583 18.6364C32.6925 18.7643 32.5472 19.0587 32.5924 19.25C32.5811 19.8264 32.5289 20.3519 32.0114 20.6931V20.6999ZM73.9596 30.7878H74.0174C74.1377 30.7887 74.2568 30.7656 74.3676 30.7199C74.4784 30.6742 74.5785 30.607 74.6618 30.5223C74.7456 30.4386 74.8096 30.3379 74.849 30.2273C74.8885 30.1167 74.9026 29.9991 74.8902 29.8826C74.8703 29.6668 74.7732 29.4646 74.616 29.3115C74.4587 29.1583 74.2514 29.064 74.0301 29.0448C73.8116 29.0498 73.6014 29.128 73.435 29.2663C73.2687 29.4046 73.1561 29.5945 73.1164 29.8042C73.0926 29.92 73.0955 30.0394 73.1251 30.1539C73.1546 30.2683 73.2099 30.3749 73.287 30.4659C73.369 30.5629 73.4716 30.6413 73.5877 30.6957C73.7039 30.7501 73.8307 30.7792 73.9596 30.781V30.7878ZM69.0032 25.7171C68.8852 25.7414 68.7742 25.7911 68.6784 25.8625C68.5825 25.9338 68.5042 26.0251 68.449 26.1298C68.388 26.2418 68.3529 26.3655 68.3463 26.4922C68.3397 26.619 68.3618 26.7455 68.4109 26.863C68.4547 26.9843 68.5253 27.0947 68.6176 27.1865C68.71 27.2783 68.8218 27.3491 68.9454 27.394C69.0378 27.4276 69.1357 27.4449 69.2344 27.4449C69.3718 27.4451 69.5069 27.4105 69.6264 27.3445C69.8319 27.2531 69.9943 27.089 70.0807 26.8854C70.1672 26.6818 70.1713 26.4538 70.0922 26.2474C70.0132 26.041 69.8568 25.8715 69.6547 25.773C69.4526 25.6746 69.2198 25.6546 69.0032 25.7171V25.7171ZM69.5362 21.4799C69.6542 21.5277 69.7807 21.552 69.9084 21.5515C70.0719 21.5553 70.2331 21.5146 70.3741 21.4339C70.5151 21.3533 70.6302 21.2358 70.7065 21.0948C70.8081 20.8964 70.83 20.6681 70.7679 20.4549C70.7058 20.2416 70.5642 20.0586 70.3709 19.9419C70.2713 19.8795 70.1593 19.8382 70.0422 19.8206C69.9251 19.8031 69.8056 19.8097 69.6913 19.8401C69.5704 19.8727 69.4577 19.9295 69.3606 20.007C69.2635 20.0844 69.184 20.1808 69.1273 20.29C69.0695 20.4027 69.036 20.5258 69.0287 20.6517C69.0214 20.7775 69.0406 20.9035 69.085 21.0218C69.1242 21.1239 69.1845 21.2169 69.2621 21.2952C69.3397 21.3736 69.433 21.4355 69.5362 21.4772V21.4799ZM71.6315 28.2208C71.4469 28.1038 71.2261 28.0536 71.0075 28.0787C70.7889 28.1038 70.5861 28.2028 70.4344 28.3584C70.3508 28.4417 70.2869 28.542 70.2471 28.652C70.2074 28.762 70.1929 28.8792 70.2046 28.9953C70.2164 29.1222 70.2566 29.245 70.3224 29.355C70.3882 29.4651 70.4779 29.5597 70.5853 29.6323C70.7445 29.7473 70.9371 29.8099 71.1352 29.8111C71.2032 29.8109 71.2709 29.8026 71.3368 29.7863C71.4515 29.7599 71.5588 29.7093 71.6511 29.638C71.7435 29.5667 71.8186 29.4764 71.8713 29.3736C71.9757 29.1847 72.0089 28.9659 71.9651 28.7556C71.9213 28.5452 71.8033 28.3564 71.6315 28.2222V28.2208ZM71.8811 17.4175C71.7573 17.4092 71.6331 17.4261 71.5164 17.467C71.3996 17.508 71.2929 17.5722 71.2029 17.6555C71.1101 17.7332 71.0352 17.829 70.9831 17.9368C70.9309 18.0446 70.9026 18.1619 70.9001 18.2811C70.8976 18.4003 70.9208 18.5187 70.9684 18.6285C71.0159 18.7383 71.0867 18.8371 71.1761 18.9184C71.3487 19.071 71.5734 19.1554 71.8064 19.155C71.9759 19.1594 72.1431 19.1157 72.2877 19.0291C72.4322 18.9425 72.5479 18.8169 72.6206 18.6674C72.6933 18.5179 72.72 18.351 72.6974 18.187C72.6747 18.023 72.6038 17.869 72.4931 17.7436C72.4202 17.6506 72.328 17.5736 72.2226 17.5177C72.1171 17.4617 72.0008 17.4281 71.8811 17.4189V17.4175ZM74.831 15.8974C74.7146 15.8437 74.5883 15.8134 74.4596 15.8084C74.331 15.8035 74.2026 15.8239 74.0822 15.8685H74.071C73.954 15.9177 73.8487 15.9898 73.7616 16.0805C73.6745 16.1712 73.6075 16.2784 73.5648 16.3954C73.5249 16.5016 73.5085 16.6148 73.5165 16.7277C73.5245 16.8405 73.5568 16.9504 73.6113 17.0502C73.6885 17.1971 73.805 17.3209 73.9485 17.4083C74.092 17.4958 74.2571 17.5437 74.4263 17.5469C74.5374 17.5473 74.6473 17.5253 74.7492 17.4822C74.9607 17.3953 75.1308 17.2335 75.2252 17.0294C75.3196 16.8253 75.3314 16.5939 75.2582 16.3817C75.2248 16.2767 75.1697 16.1795 75.0962 16.0962C75.0227 16.0129 74.9324 15.9453 74.831 15.8974V15.8974ZM68.9609 24.4267C69.1782 24.428 69.3889 24.3543 69.5559 24.2186C69.7229 24.0829 69.8353 23.8939 69.8732 23.6852V23.6783C69.8973 23.4565 69.8363 23.2339 69.7019 23.0534C69.5675 22.873 69.3693 22.7476 69.1456 22.7016C69.0327 22.6758 68.9155 22.6738 68.8017 22.6956C68.6879 22.7174 68.5802 22.7626 68.4857 22.8281C68.3817 22.8995 68.2938 22.9909 68.2273 23.0966C68.1609 23.2024 68.1173 23.3203 68.0993 23.443C68.0763 23.5603 68.0799 23.681 68.1099 23.7968C68.1398 23.9125 68.1954 24.0205 68.2728 24.113C68.3497 24.2081 68.4467 24.2861 68.5571 24.3416C68.6675 24.3971 68.7889 24.429 68.9129 24.4349L68.9609 24.4267ZM76.6782 30.0147C76.7663 30.0438 76.8587 30.0582 76.9517 30.0573C77.1214 30.055 77.2872 30.0074 77.4312 29.9198C77.5448 29.8574 77.643 29.7715 77.719 29.6681C77.795 29.5647 77.8469 29.4464 77.8711 29.3214C77.8944 29.2062 77.8911 29.0873 77.8613 28.9736C77.8316 28.8598 77.7761 28.754 77.6991 28.6638C77.5605 28.4955 77.3662 28.3795 77.1496 28.3358C76.9329 28.2921 76.7074 28.3234 76.5118 28.4244C76.3288 28.5446 76.1948 28.7236 76.1332 28.9302C76.0716 29.1369 76.0864 29.3581 76.1748 29.5552C76.2176 29.6637 76.2844 29.7616 76.3704 29.842C76.4564 29.9224 76.5596 29.9832 76.6725 30.0202L76.6782 30.0147ZM78.5902 27.7228C78.725 27.8133 78.8849 27.8613 79.0485 27.8604C79.1967 27.8545 79.3413 27.8142 79.4703 27.7428C79.5993 27.6714 79.709 27.5709 79.7901 27.4498C79.8712 27.3286 79.9215 27.1903 79.9367 27.0464C79.9519 26.9024 79.9317 26.757 79.8776 26.6223C79.8324 26.5133 79.7628 26.4156 79.6741 26.3361C79.5853 26.2566 79.4795 26.1974 79.3644 26.1628C79.1553 26.0842 78.9237 26.0852 78.7153 26.1655C78.507 26.2459 78.3373 26.3997 78.2398 26.5964C78.1423 26.7932 78.1243 27.0186 78.1892 27.2277C78.2541 27.4369 78.3973 27.6146 78.5902 27.7256V27.7228ZM77.3973 15.1587C77.2722 15.1621 77.1491 15.1909 77.036 15.2433C76.9229 15.2956 76.8221 15.3703 76.7402 15.4627C76.6633 15.5506 76.6064 15.6535 76.5733 15.7645C76.5402 15.8755 76.5318 15.9921 76.5485 16.1065C76.5778 16.3232 76.6859 16.5223 76.8531 16.6677C77.0203 16.8132 77.2354 16.8952 77.4594 16.8989H77.4847C77.709 16.8798 77.9185 16.7817 78.0742 16.623C78.2298 16.4643 78.321 16.2558 78.3308 16.0364C78.3357 15.917 78.3147 15.7979 78.2691 15.687C78.2234 15.5761 78.1543 15.4759 78.0661 15.393C77.9779 15.3101 77.8727 15.2463 77.7574 15.2059C77.6422 15.1656 77.5194 15.1494 77.3973 15.1587V15.1587ZM79.9354 8.30226C79.8194 8.28103 79.7 8.28415 79.5852 8.31143C79.4704 8.33871 79.363 8.38951 79.2699 8.46046C79.1708 8.53498 79.0889 8.62894 79.0294 8.73629C78.9699 8.84364 78.9341 8.96197 78.9244 9.08365C78.9094 9.30593 78.9796 9.52573 79.1213 9.70037C79.2631 9.87501 79.4663 9.99204 79.6915 10.0287V10.0287C79.7335 10.0349 79.7759 10.0377 79.8184 10.037C80.029 10.0327 80.2315 9.95655 80.3906 9.82188C80.5498 9.68721 80.6556 9.50245 80.6898 9.29963C80.71 9.18933 80.7071 9.0762 80.6814 8.967C80.6558 8.8578 80.6078 8.75477 80.5404 8.66406C80.4673 8.5672 80.3749 8.48572 80.2688 8.4245C80.1627 8.36328 80.045 8.32357 79.9228 8.30776L79.9354 8.30226ZM61.8118 23.2903C61.84 23.2903 61.8696 23.2903 61.8992 23.2903C62.1276 23.3016 62.3516 23.2268 62.525 23.0815C62.6984 22.9362 62.8079 22.7314 62.8309 22.5095C62.8539 22.2876 62.7886 22.0656 62.6485 21.8893C62.5085 21.713 62.3043 21.596 62.0783 21.5625C61.9656 21.541 61.8496 21.5421 61.7374 21.5658C61.6251 21.5894 61.519 21.6351 61.4255 21.7001C61.3249 21.7699 61.24 21.859 61.1757 21.9619C61.1115 22.0647 61.0693 22.1793 61.0518 22.2985C61.0313 22.4175 61.0364 22.5394 61.0667 22.6563C61.0971 22.7733 61.152 22.8829 61.228 22.9781C61.2982 23.0664 61.3862 23.1397 61.4866 23.1934C61.5871 23.2472 61.6978 23.2802 61.8118 23.2903V23.2903ZM70.3061 36.7501C70.3839 36.7696 70.464 36.7793 70.5444 36.7789C70.7117 36.7807 70.8761 36.7358 71.0182 36.6496C71.1136 36.5917 71.1959 36.5153 71.2599 36.4251C71.3239 36.335 71.3683 36.233 71.3904 36.1255C71.4386 35.9078 71.4007 35.6804 71.2844 35.4889C71.168 35.2973 70.9818 35.1557 70.7629 35.0923V35.0923C70.5437 35.0445 70.3142 35.0771 70.118 35.184C69.9219 35.2908 69.773 35.4644 69.6997 35.6715C69.6612 35.7823 69.6467 35.8996 69.6571 36.0162C69.6675 36.1327 69.7027 36.2458 69.7604 36.3484C69.8173 36.449 69.8953 36.5368 69.9893 36.606C70.0833 36.6752 70.1913 36.7243 70.3061 36.7501V36.7501ZM64.412 30.7053C64.2844 30.5165 64.0884 30.3817 63.8633 30.3279C63.6382 30.2741 63.4005 30.3052 63.1979 30.415C63.0974 30.467 63.009 30.5387 62.9381 30.6256C62.8673 30.7125 62.8156 30.8127 62.7862 30.9199C62.7543 31.0375 62.7472 31.1602 62.7654 31.2806C62.7836 31.401 62.8266 31.5165 62.8919 31.6201C62.95 31.7244 63.0304 31.8153 63.1278 31.8865C63.2251 31.9577 63.3371 32.0076 63.456 32.0328C63.5166 32.046 63.5786 32.0524 63.6407 32.0521C63.8229 32.0521 64.0004 31.9963 64.1483 31.8925C64.3353 31.7617 64.4659 31.5678 64.5146 31.3485C64.5633 31.1291 64.5267 30.8999 64.412 30.7053ZM62.3914 20.3147C62.6136 20.3767 62.8514 20.3567 63.0595 20.2585C63.2676 20.1603 63.4313 19.9908 63.5194 19.7824C63.5925 19.5668 63.5787 19.3321 63.4807 19.1261C63.3827 18.9201 63.208 18.7583 62.992 18.6735C62.8862 18.6303 62.7724 18.6087 62.6577 18.6101C62.543 18.6115 62.4297 18.6359 62.3251 18.6818C62.213 18.7316 62.1122 18.8025 62.0286 18.8906C61.9449 18.9787 61.8799 19.0821 61.8376 19.1949C61.7952 19.3076 61.7762 19.4275 61.7817 19.5475C61.7872 19.6674 61.8171 19.7852 61.8696 19.8938C61.9222 19.9952 61.9957 20.085 62.0855 20.1574C62.1752 20.2298 62.2794 20.2834 62.3914 20.3147V20.3147ZM64.3655 33.0398C64.366 33.1534 64.3915 33.2656 64.4401 33.3688C64.4887 33.472 64.5594 33.5639 64.6475 33.6382C64.8171 33.7895 65.0381 33.8743 65.2679 33.8762H65.3257C65.438 33.8693 65.5477 33.8402 65.6481 33.7905C65.7485 33.7408 65.8374 33.6717 65.9095 33.5873C66.0712 33.4232 66.1595 33.203 66.1549 32.9753C66.1502 32.7477 66.0531 32.5311 65.8848 32.3733C65.7165 32.2155 65.4909 32.1294 65.2575 32.1339C65.0241 32.1384 64.8022 32.2332 64.6404 32.3974C64.5526 32.4806 64.4833 32.5806 64.437 32.6912C64.3906 32.8017 64.3682 32.9204 64.3711 33.0398H64.3655ZM63.1838 28.1561C63.112 27.9449 62.9607 27.7682 62.7605 27.6617C62.5602 27.5552 62.326 27.5269 62.1051 27.5825C61.9899 27.6108 61.8819 27.6621 61.788 27.7332C61.6941 27.8042 61.6163 27.8934 61.5594 27.9952C61.4978 28.1015 61.4593 28.219 61.4465 28.3404C61.4336 28.4619 61.4466 28.5846 61.4847 28.7009C61.5275 28.8164 61.5932 28.9226 61.6781 29.0132C61.7631 29.1039 61.8655 29.1773 61.9796 29.2292C62.091 29.2776 62.2116 29.3029 62.3335 29.3035C62.4403 29.3042 62.5461 29.2845 62.6452 29.2457C62.8634 29.1689 63.0424 29.0122 63.144 28.8087C63.2456 28.6052 63.2619 28.3711 63.1895 28.1561H63.1838ZM64.4529 16.0075C64.3578 15.9449 64.2505 15.902 64.1377 15.8817C64.0249 15.8613 63.909 15.8639 63.7972 15.8892C63.6766 15.9155 63.5627 15.9657 63.4628 16.0367C63.3629 16.1077 63.2789 16.1979 63.2162 16.3019C63.1498 16.4027 63.1061 16.5162 63.0878 16.6347C63.0696 16.7533 63.0773 16.8743 63.1105 16.9897C63.14 17.1 63.1929 17.203 63.2657 17.2921C63.3386 17.3812 63.4298 17.4544 63.5335 17.507C63.6645 17.5725 63.8093 17.6074 63.9565 17.6088C64.1521 17.6156 64.3443 17.5588 64.5032 17.4474C64.662 17.336 64.7784 17.1762 64.8341 16.9932C64.8898 16.8103 64.8816 16.6144 64.8108 16.4365C64.74 16.2586 64.6106 16.1086 64.443 16.0102L64.4529 16.0075ZM67.2603 35.5422C67.3917 35.6227 67.5437 35.6656 67.6989 35.666C67.7815 35.6658 67.8637 35.6537 67.9428 35.6302C68.0594 35.5979 68.1678 35.542 68.2608 35.4662C68.3539 35.3903 68.4295 35.2962 68.4829 35.19C68.581 34.9934 68.6003 34.7681 68.5369 34.5584C68.4735 34.3487 68.332 34.1696 68.1402 34.0565C67.9415 33.9479 67.7077 33.9179 67.487 33.9727C67.2664 34.0275 67.0757 34.1629 66.9543 34.3509C66.8925 34.4426 66.8502 34.5455 66.8301 34.6536C66.81 34.7616 66.8124 34.8725 66.8373 34.9795C66.8676 35.0959 66.9216 35.2052 66.9959 35.3009C67.0703 35.3966 67.1635 35.4768 67.2702 35.5367L67.2603 35.5422ZM83.1095 9.01074C83.0002 8.96838 82.8828 8.94941 82.7653 8.9551C82.6478 8.9608 82.5329 8.99103 82.4284 9.04375C82.3162 9.09928 82.217 9.17681 82.1369 9.2715C82.0568 9.36619 81.9977 9.47599 81.9631 9.59403C81.9023 9.80838 81.9265 10.0372 82.0311 10.2349C82.1357 10.4325 82.3128 10.5844 82.5272 10.6602C82.6174 10.6929 82.7129 10.7096 82.8092 10.7097C82.9913 10.7071 83.1684 10.6512 83.3175 10.5491C83.4667 10.4471 83.5809 10.3036 83.6453 10.1374C83.6876 10.0331 83.7077 9.92152 83.7043 9.8094C83.7009 9.69729 83.6741 9.58703 83.6256 9.48535C83.5778 9.37673 83.5085 9.27839 83.4216 9.196C83.3347 9.1136 83.232 9.04877 83.1194 9.00523L83.1095 9.01074ZM86.1116 10.2943C86.0115 10.2325 85.8992 10.1924 85.7819 10.1765C85.6647 10.1606 85.5454 10.1693 85.4319 10.2021C85.3111 10.2342 85.1986 10.2905 85.1015 10.3675C85.0043 10.4445 84.9248 10.5404 84.8679 10.6492C84.7669 10.849 84.7465 11.0785 84.8108 11.2922C84.875 11.506 85.0192 11.6884 85.2147 11.8034V11.8034C85.3461 11.8811 85.4968 11.9225 85.6505 11.9231C85.804 11.9228 85.9549 11.8848 86.0895 11.8127C86.224 11.7406 86.3378 11.6366 86.4204 11.5104C86.4819 11.4154 86.5233 11.3094 86.5422 11.1986C86.5611 11.0878 86.557 10.9744 86.5303 10.8652C86.5028 10.7477 86.4516 10.6367 86.3797 10.5387C86.3078 10.4407 86.2167 10.3576 86.1116 10.2943V10.2943ZM65.8065 13.4253C65.6831 13.4295 65.5618 13.4581 65.4501 13.5094C65.3383 13.5607 65.2385 13.6337 65.1565 13.7238C65.0722 13.8108 65.0074 13.914 64.9661 14.0267C64.9249 14.1394 64.9081 14.2593 64.9168 14.3787C64.9258 14.4924 64.9589 14.6031 65.014 14.7037C65.0691 14.8043 65.145 14.8927 65.2369 14.9633C65.403 15.0929 65.6094 15.1633 65.8221 15.1628C65.9462 15.1641 66.0693 15.1404 66.1836 15.093C66.2979 15.0457 66.401 14.9758 66.4862 14.8877C66.638 14.7152 66.7166 14.4927 66.7059 14.2657C66.6951 14.0386 66.5959 13.8241 66.4284 13.6661C66.347 13.5868 66.2498 13.5246 66.1429 13.4832C66.036 13.4418 65.9215 13.4221 65.8065 13.4253V13.4253ZM76.6443 8.22384C76.5244 8.22689 76.4065 8.2545 76.2982 8.30487C76.19 8.35524 76.0938 8.42725 76.0158 8.51623C75.9379 8.60522 75.8801 8.70918 75.846 8.82139C75.8119 8.9336 75.8024 9.05154 75.818 9.16756C75.8464 9.38609 75.9551 9.58715 76.1239 9.73339C76.2927 9.87963 76.5102 9.96112 76.736 9.96271H76.7642C76.9962 9.94547 77.2124 9.84161 77.3679 9.67274C77.5234 9.50388 77.6062 9.28302 77.599 9.05613C77.5974 8.94402 77.5725 8.83338 77.5257 8.73096C77.479 8.62855 77.4113 8.53651 77.3268 8.46046C77.2356 8.37817 77.1282 8.31477 77.0111 8.2741C76.8941 8.23343 76.7698 8.21633 76.6458 8.22384H76.6443ZM68.2544 11.3879C68.1323 11.369 68.0076 11.3747 67.8878 11.4045C67.768 11.4343 67.6558 11.4876 67.5579 11.5613C67.458 11.6318 67.3743 11.7217 67.3119 11.8255C67.2495 11.9292 67.2099 12.0444 67.1955 12.1638C67.1823 12.2759 67.1931 12.3894 67.2274 12.4972C67.2616 12.6049 67.3184 12.7046 67.3943 12.7897C67.483 12.8917 67.5934 12.9735 67.7179 13.0296C67.8423 13.0857 67.9778 13.1146 68.1148 13.1144C68.3032 13.1161 68.4869 13.0576 68.638 12.9479C68.82 12.8065 68.94 12.6027 68.9732 12.378C69.0065 12.1533 68.9507 11.9246 68.817 11.7387C68.7533 11.6452 68.6706 11.5654 68.5741 11.5041C68.4776 11.4428 68.3693 11.4014 68.2558 11.3824L68.2544 11.3879ZM80.7744 15.5961H80.7603C80.6373 15.5614 80.5082 15.5516 80.3811 15.5675C80.254 15.5833 80.1316 15.6244 80.0215 15.6883C79.9224 15.7448 79.8364 15.8208 79.7692 15.9116C79.7019 16.0023 79.6548 16.1057 79.6309 16.2152C79.5757 16.4292 79.6057 16.6556 79.7148 16.8488C79.8239 17.042 80.004 17.1877 80.2189 17.2566C80.3056 17.2875 80.3972 17.3033 80.4896 17.3034C80.6719 17.2995 80.849 17.2438 80.9993 17.1431C81.1496 17.0425 81.2665 16.9012 81.3356 16.7366C81.3807 16.6354 81.4039 16.5263 81.4039 16.416C81.4039 16.3058 81.3807 16.1967 81.3356 16.0955C81.2823 15.9787 81.2052 15.8737 81.109 15.7869C81.0127 15.7001 80.8994 15.6333 80.7758 15.5906L80.7744 15.5961ZM71.0605 9.84165C70.9444 9.80024 70.8209 9.7823 70.6975 9.78892C70.5742 9.79554 70.4534 9.82659 70.3427 9.88017C70.2304 9.93102 70.1301 10.0041 70.0483 10.0948C69.9665 10.1856 69.905 10.2919 69.8675 10.4071C69.8336 10.5141 69.8224 10.6267 69.8345 10.7381C69.8466 10.8495 69.8818 10.9573 69.938 11.055C70.02 11.1973 70.139 11.316 70.2832 11.3989C70.4273 11.4817 70.5914 11.5259 70.7587 11.5269C70.8867 11.5274 71.0131 11.4992 71.1281 11.4443C71.336 11.341 71.4955 11.1641 71.5741 10.9498C71.6528 10.7355 71.6445 10.5001 71.5512 10.2915C71.5057 10.1871 71.4388 10.0929 71.3547 10.0146C71.2705 9.9363 71.1709 9.87558 71.0619 9.83615L71.0605 9.84165ZM61.8584 26.3169C62.0863 26.291 62.2956 26.1813 62.4435 26.0101C62.5215 25.9282 62.5819 25.8321 62.6214 25.7272C62.6608 25.6223 62.6785 25.5109 62.6734 25.3993C62.6539 25.1734 62.5478 24.963 62.3764 24.81C62.2049 24.657 61.9807 24.5727 61.7484 24.5739V24.5739C61.6352 24.5738 61.5232 24.5962 61.4192 24.6397C61.3152 24.6832 61.2214 24.7469 61.1434 24.827C60.9752 25.0055 60.8863 25.2418 60.8961 25.4841C60.9058 25.7264 61.0135 25.9551 61.1956 26.1201C61.3538 26.2491 61.5535 26.3198 61.7596 26.3196C61.7926 26.3205 61.8255 26.3196 61.8584 26.3169V26.3169ZM88.1562 11.9052C88.0327 11.9141 87.9124 11.9481 87.8032 12.0049C87.6939 12.0618 87.598 12.1403 87.5216 12.2353C87.384 12.4138 87.3196 12.636 87.341 12.8583C87.3623 13.0807 87.468 13.2873 87.6372 13.4377C87.7946 13.5759 87.9994 13.6515 88.2111 13.6495C88.3364 13.6489 88.4603 13.6235 88.5751 13.5748C88.69 13.5261 88.7936 13.4551 88.8795 13.3662C88.9592 13.285 89.021 13.1889 89.0613 13.0836C89.1015 12.9784 89.1193 12.8662 89.1136 12.754C89.1086 12.634 89.0791 12.5162 89.0268 12.4076C88.9745 12.2989 88.9004 12.2015 88.809 12.1212C88.7224 12.0416 88.6193 11.9811 88.5067 11.9438C88.394 11.9066 88.2745 11.8934 88.1562 11.9052V11.9052ZM74.126 8.84978C74.0204 8.78776 73.9033 8.74686 73.7814 8.72948C73.6595 8.7121 73.5352 8.71858 73.4159 8.74855C73.2966 8.77852 73.1846 8.83136 73.0864 8.90402C72.9883 8.97667 72.9059 9.06766 72.8442 9.17169C72.7892 9.27116 72.7555 9.38048 72.745 9.49304C72.7346 9.6056 72.7477 9.71905 72.7836 9.82652C72.8451 10.0084 72.9631 10.1671 73.1213 10.2805C73.2795 10.3939 73.47 10.4564 73.6663 10.4593C73.7367 10.4593 73.8068 10.4505 73.875 10.4332C74.0984 10.37 74.2887 10.2262 74.4071 10.0309C74.5255 9.83559 74.5631 9.60359 74.5123 9.38217C74.4884 9.27248 74.4418 9.16869 74.3753 9.07716C74.3089 8.98562 74.2241 8.90826 74.126 8.84978V8.84978ZM73.5422 37.2013H73.5859C73.6973 37.2012 73.8076 37.1796 73.9104 37.1378C74.0133 37.0961 74.1066 37.0349 74.1852 36.9578C74.2709 36.8745 74.338 36.7748 74.3821 36.6649C74.4263 36.555 74.4466 36.4374 74.4418 36.3195C74.4322 36.1009 74.3389 35.8938 74.1805 35.7389C74.0221 35.5841 73.8099 35.4928 73.5859 35.483C73.3577 35.4773 73.1363 35.5586 72.9686 35.7097C72.8008 35.8607 72.7001 36.0696 72.6877 36.2919C72.6773 36.4015 72.6902 36.5119 72.7256 36.6163C72.7611 36.7207 72.8182 36.8168 72.8936 36.8986C72.975 36.9883 73.0739 37.0612 73.1846 37.1132C73.2952 37.1651 73.4153 37.1951 73.538 37.2013H73.5422ZM91.3443 15.3086C91.3625 15.1902 91.3562 15.0693 91.3256 14.9533C91.2951 14.8373 91.2411 14.7284 91.1666 14.6332C91.0997 14.5395 91.0127 14.4611 90.9117 14.4033C90.8106 14.3456 90.698 14.31 90.5815 14.2989C90.405 14.2779 90.2262 14.3083 90.0674 14.3862C89.9087 14.4641 89.7771 14.5861 89.6892 14.7369C89.6013 14.8876 89.5611 15.0603 89.5736 15.2333C89.5861 15.4062 89.6507 15.5717 89.7594 15.7089C89.8408 15.8131 89.9461 15.8972 90.0668 15.9545C90.1875 16.0119 90.3203 16.0408 90.4546 16.0391C90.6476 16.0389 90.8358 15.9803 90.9932 15.8713C91.0874 15.8052 91.167 15.7214 91.2273 15.6247C91.2876 15.5281 91.3274 15.4206 91.3443 15.3086ZM76.124 36.7583C76.2574 36.8407 76.4118 36.885 76.5696 36.8862C76.649 36.8892 76.7284 36.8804 76.8051 36.8601C76.9253 36.8306 77.0383 36.7779 77.1373 36.7051C77.2364 36.6324 77.3195 36.541 77.3818 36.4364C77.4371 36.3411 77.4716 36.2357 77.4832 36.1269C77.4949 36.018 77.4834 35.9079 77.4495 35.8036C77.3858 35.5902 77.2415 35.4082 77.0458 35.2944C76.8501 35.1805 76.6175 35.1432 76.3948 35.19C76.1789 35.2491 75.9931 35.3839 75.8728 35.5684C75.7526 35.753 75.7065 35.9744 75.7433 36.1901C75.7625 36.3056 75.8064 36.4157 75.8719 36.5136C75.9375 36.6115 76.0234 36.6948 76.124 36.7583V36.7583ZM63.7803 39.4959C63.5844 39.3847 63.353 39.3487 63.1314 39.395C62.9097 39.4413 62.7138 39.5666 62.5817 39.7463C62.5121 39.8427 62.4636 39.9521 62.4393 40.0676C62.4151 40.1831 62.4155 40.3023 62.4407 40.4176C62.4654 40.5281 62.5136 40.6323 62.5821 40.7235C62.6506 40.8147 62.7379 40.8909 62.8384 40.9473C62.9414 41.0093 63.0561 41.0506 63.1757 41.0688C63.2953 41.0869 63.4174 41.0817 63.5349 41.0532C63.6454 41.0268 63.7493 40.979 63.8404 40.9126C63.9315 40.8462 64.0079 40.7625 64.0651 40.6666C64.1837 40.4738 64.2202 40.2434 64.167 40.0247C64.1138 39.8059 63.975 39.6162 63.7803 39.4959V39.4959ZM60.2368 37.83C60.1577 37.9094 60.0959 38.0036 60.055 38.1069C60.014 38.2102 59.9948 38.3205 59.9985 38.4311C60.0078 38.6577 60.1059 38.8722 60.2725 39.0303C60.439 39.1885 60.6614 39.2783 60.8939 39.2813H60.9573C61.0703 39.2734 61.1804 39.2429 61.2808 39.1918C61.3812 39.1407 61.4698 39.07 61.5411 38.9842C61.6881 38.8113 61.7627 38.5906 61.7498 38.3663C61.737 38.142 61.6378 37.9308 61.472 37.7749C61.2981 37.628 61.073 37.5518 60.8431 37.5621C60.6133 37.5723 60.3963 37.6682 60.2368 37.83V37.83ZM66.3706 40.8496C66.1616 40.7562 65.9232 40.7472 65.7075 40.8245C65.4917 40.9018 65.316 41.0592 65.2185 41.2623C65.1683 41.3619 65.1389 41.4702 65.1321 41.581C65.1253 41.6918 65.1413 41.8028 65.1791 41.9075C65.2186 42.0185 65.2804 42.1208 65.3607 42.2085C65.4411 42.2961 65.5385 42.3672 65.6472 42.4179C65.76 42.4737 65.8846 42.5029 66.011 42.5032C66.1147 42.5031 66.2174 42.4844 66.3142 42.4481C66.4792 42.3887 66.6223 42.2828 66.7253 42.1437C66.8283 42.0047 66.8866 41.8388 66.8926 41.6673C66.8987 41.4959 66.8523 41.3265 66.7593 41.1809C66.6663 41.0352 66.531 40.9199 66.3706 40.8496V40.8496ZM79.1444 35.7802C79.2422 35.816 79.3459 35.8342 79.4504 35.8338C79.5939 35.8324 79.7354 35.8005 79.8649 35.7403C79.9723 35.6893 80.0674 35.6168 80.1439 35.5274C80.2205 35.438 80.2768 35.3338 80.3091 35.2217C80.3437 35.1091 80.3537 34.9908 80.3387 34.8742C80.3236 34.7577 80.2838 34.6455 80.2217 34.5448C80.1031 34.3627 79.9185 34.2308 79.7047 34.1754C79.4909 34.1201 79.2636 34.1453 79.068 34.2461C78.8725 34.3468 78.723 34.5158 78.6493 34.7193C78.5757 34.9228 78.5833 35.1458 78.6706 35.3441C78.7141 35.4449 78.7782 35.536 78.8589 35.6119C78.9396 35.6878 79.0353 35.7469 79.1402 35.7857L79.1444 35.7802ZM81.9039 34.1459H81.9462C82.1715 34.1429 82.3878 34.0592 82.5539 33.9106C82.6463 33.8305 82.7209 33.7328 82.773 33.6235C82.8252 33.5142 82.8538 33.3956 82.8571 33.2751C82.8591 33.1653 82.8379 33.0563 82.795 32.9548C82.7521 32.8533 82.6883 32.7614 82.6075 32.6849C82.4463 32.5273 82.2302 32.4345 82.0022 32.4251C81.7742 32.4157 81.5508 32.4902 81.3765 32.634C81.2946 32.7076 81.2284 32.7964 81.1817 32.895C81.135 32.9937 81.1087 33.1004 81.1044 33.209C81.0841 33.4316 81.1523 33.6532 81.2948 33.8281C81.368 33.919 81.4594 33.9945 81.5633 34.0501C81.6673 34.1056 81.7817 34.1401 81.8997 34.1514L81.9039 34.1459ZM68.1867 42.3381C67.959 42.2877 67.7202 42.3237 67.5187 42.4386C67.3171 42.5535 67.1678 42.7389 67.101 42.9571C67.0673 43.064 67.0561 43.1763 67.0682 43.2875C67.0804 43.3986 67.1155 43.5062 67.1715 43.6037C67.2542 43.7404 67.3719 43.8537 67.513 43.9326C67.6542 44.0115 67.814 44.0532 67.9766 44.0536C68.1416 44.0538 68.3032 44.009 68.4434 43.9242C68.5417 43.8659 68.6267 43.7884 68.6929 43.6966C68.7592 43.6047 68.8053 43.5005 68.8283 43.3905C68.8769 43.1686 68.8372 42.937 68.7173 42.7426C68.5974 42.5482 68.4062 42.4056 68.1825 42.3436L68.1867 42.3381ZM86.708 24.9783C86.4779 24.9647 86.2515 25.0398 86.0777 25.1875C85.9038 25.3352 85.7965 25.5437 85.7788 25.768C85.7577 25.9909 85.8252 26.2132 85.9675 26.3889C86.1098 26.5646 86.3158 26.6801 86.543 26.7117C86.5864 26.7188 86.6302 26.7224 86.6742 26.7227C86.897 26.7204 87.111 26.637 87.2743 26.4889C87.4375 26.3409 87.5383 26.1387 87.5569 25.922C87.564 25.7996 87.5462 25.677 87.5046 25.5614C87.463 25.4457 87.3983 25.3392 87.3143 25.2479C87.2373 25.1653 87.1438 25.0988 87.0395 25.0524C86.9353 25.0061 86.8225 24.9809 86.708 24.9783V24.9783ZM86.2667 27.9718C86.0468 27.9089 85.8107 27.9305 85.6067 28.0323C85.3963 28.1249 85.232 28.2951 85.1499 28.5056C85.0783 28.7209 85.0926 28.9546 85.1898 29.1601C85.287 29.3656 85.4601 29.5278 85.6744 29.6144C85.7789 29.659 85.8917 29.682 86.0058 29.6818C86.1197 29.6815 86.2323 29.6591 86.3372 29.6157C86.4497 29.566 86.551 29.4951 86.6354 29.4071C86.7198 29.3191 86.7857 29.2158 86.8291 29.103C86.8726 28.9902 86.8929 28.8701 86.8888 28.7497C86.8847 28.6292 86.8563 28.5108 86.8053 28.401C86.75 28.2976 86.6737 28.2063 86.5811 28.1325C86.4885 28.0587 86.3816 28.004 86.2667 27.9718V27.9718ZM85.6392 23.0193C85.6874 23.2141 85.802 23.3871 85.9641 23.5101C86.1263 23.633 86.3264 23.6987 86.5317 23.6962C86.5723 23.6962 86.6128 23.6935 86.653 23.6879C86.7708 23.6735 86.8841 23.635 86.9857 23.5751C87.0872 23.5151 87.1747 23.435 87.2424 23.3399C87.315 23.2383 87.3651 23.1231 87.3893 23.0015C87.4136 22.88 87.4116 22.7549 87.3834 22.6341C87.353 22.512 87.2972 22.3973 87.2196 22.297C87.142 22.1967 87.0442 22.1129 86.9322 22.0509C86.8339 21.9967 86.725 21.9631 86.6126 21.9522C86.5002 21.9413 86.3867 21.9533 86.2793 21.9876C86.0591 22.0506 85.871 22.1921 85.7525 22.3839C85.6339 22.5757 85.5935 22.804 85.6392 23.0235V23.0193ZM85.329 20.9022C85.4825 20.902 85.6338 20.8662 85.7703 20.7976C85.8727 20.7476 85.9633 20.6772 86.0362 20.5909C86.109 20.5047 86.1626 20.4045 86.1933 20.2969C86.2258 20.1763 86.2327 20.0505 86.2135 19.9273C86.1944 19.804 86.1496 19.6859 86.0819 19.5801C86.0195 19.4779 85.9357 19.3897 85.8361 19.3211C85.7364 19.2524 85.6231 19.205 85.5035 19.1818C85.3839 19.1586 85.2606 19.1601 85.1416 19.1863C85.0227 19.2125 84.9107 19.2628 84.8129 19.3339C84.6331 19.4674 84.5098 19.6606 84.4664 19.8769C84.423 20.0932 84.4625 20.3176 84.5774 20.5073C84.6577 20.6302 84.769 20.731 84.9005 20.8001C85.0321 20.8693 85.1796 20.9044 85.329 20.9022ZM84.1375 17.7271C84.1254 17.6081 84.087 17.4931 84.025 17.39C83.9629 17.2869 83.8786 17.1982 83.7779 17.13C83.6791 17.0549 83.5655 17.0005 83.4442 16.9702C83.3229 16.9399 83.1965 16.9344 83.0729 16.9539C82.9572 16.9738 82.8472 17.0173 82.75 17.0815C82.6528 17.1458 82.5706 17.2294 82.5088 17.3268C82.385 17.5145 82.3367 17.7403 82.3731 17.9607C82.4095 18.1811 82.5282 18.3806 82.7062 18.5208C82.863 18.625 83.0481 18.681 83.2378 18.6818C83.3662 18.6818 83.4932 18.6558 83.6107 18.6054C83.7282 18.5549 83.8336 18.4812 83.9203 18.3888C84.0024 18.2998 84.0643 18.1948 84.1017 18.0807C84.1391 17.9666 84.1513 17.8461 84.1375 17.7271ZM83.8695 31.0134C83.739 31.1989 83.6869 31.4264 83.7242 31.6484C83.7616 31.8704 83.8854 32.0697 84.0698 32.2048C84.2197 32.3183 84.4045 32.3794 84.5943 32.3781C84.6368 32.3777 84.6792 32.3744 84.7212 32.3685C84.8474 32.3497 84.9683 32.3061 85.0766 32.2404C85.185 32.1747 85.2785 32.0881 85.3515 31.9861C85.4177 31.8815 85.4619 31.7651 85.4818 31.6438C85.5016 31.5224 85.4966 31.3984 85.4671 31.2789C85.4398 31.1706 85.3902 31.0687 85.3214 30.9796C85.2526 30.8905 85.1659 30.8159 85.0667 30.7603C84.8724 30.6432 84.639 30.6041 84.4158 30.6513C84.1925 30.6985 83.9967 30.8283 83.8695 31.0134ZM58.8972 35.4115C58.7807 35.3948 58.662 35.4009 58.5479 35.4295C58.4339 35.4581 58.3269 35.5085 58.2331 35.578C58.1419 35.6445 58.0652 35.7279 58.0073 35.8236C57.9495 35.9192 57.9116 36.0251 57.8961 36.1351C57.8792 36.2534 57.8865 36.3738 57.9178 36.4893C57.949 36.6048 58.0034 36.7131 58.078 36.8078C58.1523 36.8977 58.2447 36.9717 58.3494 37.0254C58.4542 37.0791 58.5691 37.1114 58.6871 37.1201H58.7604C58.9259 37.1202 59.0881 37.0747 59.2282 36.9888C59.3683 36.9029 59.4808 36.7802 59.5525 36.6347C59.6243 36.4892 59.6525 36.3269 59.6338 36.1665C59.6152 36.0061 59.5505 35.854 59.4471 35.7279C59.3814 35.6424 59.299 35.5704 59.2046 35.5161C59.1102 35.4618 59.0057 35.4263 58.8972 35.4115V35.4115ZM91.9098 30.7204C91.7333 30.6998 91.5546 30.7306 91.3959 30.8087C91.2373 30.8868 91.1058 31.0089 91.018 31.1597C90.9302 31.3104 90.89 31.4831 90.9024 31.656C90.9148 31.829 90.9792 31.9945 91.0877 32.1319C91.1688 32.236 91.2738 32.3201 91.3943 32.3774C91.5148 32.4348 91.6474 32.4638 91.7814 32.462C91.9745 32.4619 92.1627 32.4032 92.3201 32.2942C92.414 32.2288 92.4935 32.1457 92.5538 32.0498C92.6141 31.9538 92.6541 31.847 92.6712 31.7357C92.69 31.6173 92.6841 31.4965 92.6538 31.3804C92.6235 31.2643 92.5695 31.1554 92.4949 31.0602C92.4279 30.9658 92.3408 30.8867 92.2395 30.828C92.1383 30.7694 92.0254 30.7327 91.9083 30.7204H91.9098ZM88.3296 37.5988H88.3677C88.4882 37.594 88.6066 37.5657 88.7158 37.5156C88.825 37.4655 88.9228 37.3947 89.0036 37.3072C89.0849 37.2239 89.1475 37.125 89.1873 37.0167C89.2271 36.9084 89.2433 36.7932 89.2349 36.6785C89.2259 36.5634 89.1928 36.4514 89.1375 36.3494C89.0822 36.2473 89.0059 36.1575 88.9134 36.0856C88.734 35.9479 88.5083 35.8805 88.2807 35.8965C88.053 35.9125 87.8396 36.0109 87.6824 36.1723C87.5314 36.3414 87.4539 36.5612 87.4663 36.7852C87.4786 37.0091 87.5799 37.2195 87.7486 37.3719C87.9055 37.5159 88.1128 37.5961 88.3282 37.5961L88.3296 37.5988ZM71.0915 42.8608C70.8623 42.8393 70.6335 42.9055 70.4533 43.0453C70.2731 43.1852 70.1556 43.3879 70.1256 43.6106C70.1101 43.7277 70.1189 43.8467 70.1516 43.9604C70.1843 44.0741 70.2402 44.1802 70.3159 44.2723C70.3907 44.3645 70.4841 44.4406 70.5904 44.496C70.6967 44.5514 70.8135 44.5848 70.9336 44.5942H70.9843C71.2081 44.5949 71.4248 44.5173 71.5949 44.3755C71.6853 44.3004 71.7591 44.2081 71.8117 44.1043C71.8643 44.0004 71.8946 43.8872 71.9009 43.7715C71.9077 43.6557 71.891 43.5397 71.8519 43.4302C71.8127 43.3206 71.7517 43.2197 71.6724 43.1332C71.5232 42.9712 71.3144 42.8733 71.0915 42.8608V42.8608ZM89.6903 35.0717C89.8286 35.1655 89.9929 35.2159 90.1613 35.2162C90.22 35.2163 90.2787 35.2103 90.3361 35.1983C90.4533 35.173 90.5639 35.1245 90.661 35.0556C90.758 34.9867 90.8395 34.899 90.9002 34.798C90.964 34.6978 91.0063 34.586 91.0245 34.4695C91.0427 34.3529 91.0363 34.2339 91.0059 34.1197C90.9777 34.0126 90.9277 33.9121 90.8589 33.8242C90.7901 33.7363 90.7039 33.6628 90.6054 33.608C90.4065 33.4958 90.171 33.4626 89.9477 33.515C89.7243 33.5675 89.5302 33.7018 89.4055 33.89C89.2915 34.0857 89.2575 34.3162 89.3104 34.5354C89.3632 34.7545 89.4989 34.946 89.6903 35.0717V35.0717ZM91.3979 18.4548C91.479 18.5591 91.5839 18.6434 91.7044 18.701C91.8249 18.7586 91.9575 18.7878 92.0917 18.7864C92.2848 18.7857 92.473 18.7266 92.6303 18.6171C92.7234 18.5528 92.8024 18.471 92.8627 18.3765C92.923 18.282 92.9634 18.1768 92.9814 18.0669C92.9996 17.9483 92.9934 17.8274 92.9631 17.7111C92.9328 17.5949 92.8791 17.4858 92.8051 17.39C92.7383 17.2958 92.6515 17.2168 92.5505 17.1584C92.4495 17.1 92.3367 17.0636 92.22 17.0516C92.0435 17.0306 91.8647 17.061 91.7059 17.1389C91.5472 17.2169 91.4156 17.3389 91.3277 17.4896C91.2398 17.6403 91.1996 17.813 91.2121 17.986C91.2246 18.159 91.2892 18.3245 91.3979 18.4617V18.4548ZM93.544 24.4432C93.3675 24.4223 93.1885 24.4528 93.0296 24.5308C92.8708 24.6088 92.7391 24.7309 92.6511 24.8817C92.5631 25.0325 92.5227 25.2053 92.5351 25.3784C92.5475 25.5515 92.612 25.7172 92.7205 25.8546C92.802 25.9588 92.9073 26.0429 93.028 26.1002C93.1487 26.1575 93.2815 26.1865 93.4157 26.1848C93.6087 26.1846 93.797 26.126 93.9544 26.017C94.0483 25.9516 94.1278 25.8685 94.1881 25.7725C94.2484 25.6766 94.2883 25.5697 94.3055 25.4584C94.3237 25.34 94.3173 25.2192 94.2868 25.1031C94.2563 24.9871 94.2022 24.8782 94.1278 24.783C94.0618 24.6877 93.9754 24.6075 93.8747 24.5479C93.7739 24.4883 93.6611 24.4507 93.544 24.4377V24.4432ZM92.557 21.9408C92.6383 22.045 92.7436 22.1292 92.8643 22.1865C92.985 22.2439 93.1179 22.2728 93.2521 22.271C93.4451 22.2705 93.6333 22.2119 93.7908 22.1031C93.8843 22.0373 93.9634 21.9541 94.0237 21.8582C94.084 21.7623 94.1242 21.6557 94.1419 21.5446C94.1601 21.4261 94.1537 21.3053 94.1232 21.1893C94.0927 21.0733 94.0386 20.9644 93.9642 20.8691C93.8975 20.7747 93.8107 20.6955 93.7097 20.6369C93.6087 20.5782 93.4959 20.5416 93.379 20.5293C93.2026 20.5088 93.0238 20.5395 92.8652 20.6176C92.7066 20.6958 92.5751 20.8179 92.4873 20.9686C92.3995 21.1193 92.3593 21.292 92.3717 21.465C92.3841 21.6379 92.4485 21.8034 92.557 21.9408V21.9408ZM93.1083 27.8164C92.9319 27.7958 92.7531 27.8265 92.5945 27.9046C92.4358 27.9828 92.3044 28.1049 92.2166 28.2556C92.1288 28.4063 92.0886 28.579 92.101 28.752C92.1134 28.9249 92.1778 29.0904 92.2862 29.2278C92.3674 29.3319 92.4724 29.416 92.5929 29.4734C92.7134 29.5307 92.846 29.5597 92.98 29.558C93.173 29.5578 93.3612 29.4991 93.5187 29.3901C93.6127 29.3239 93.692 29.2398 93.7519 29.1428C93.8117 29.0459 93.8509 28.9382 93.8669 28.8261C93.8857 28.7077 93.8798 28.5869 93.8495 28.4708C93.8192 28.3547 93.7652 28.2458 93.6907 28.1506C93.6241 28.0568 93.5376 27.9779 93.4372 27.9193C93.3367 27.8607 93.2246 27.8237 93.1083 27.8108V27.8164ZM76.9729 42.5004C76.7518 42.5582 76.5609 42.6946 76.4375 42.8826C76.3141 43.0707 76.2672 43.297 76.3059 43.517C76.3287 43.6369 76.377 43.7507 76.4476 43.8512C76.5183 43.9516 76.6098 44.0365 76.7163 44.1003C76.848 44.1814 77.0004 44.2247 77.1562 44.2255C77.2335 44.2252 77.3103 44.2146 77.3846 44.1939C77.621 44.1342 77.8237 43.9859 77.9487 43.7812C78.0072 43.6842 78.0453 43.5769 78.0608 43.4654C78.0763 43.3539 78.0689 43.2405 78.0389 43.1319C77.9815 42.9113 77.8376 42.7215 77.6383 42.6034C77.4389 42.4853 77.1999 42.4483 76.9729 42.5004V42.5004ZM74.0569 42.8911C73.8244 42.9083 73.6076 43.0123 73.4516 43.1814C73.2957 43.3505 73.2124 43.5717 73.2193 43.7991C73.221 43.9113 73.2461 44.022 73.2931 44.1244C73.3402 44.2268 73.4081 44.3188 73.4928 44.3947C73.6613 44.5483 73.8841 44.6326 74.1147 44.63H74.164C74.2859 44.6249 74.4055 44.5955 74.5153 44.5437C74.6251 44.4919 74.723 44.4187 74.8028 44.3287C74.8774 44.2436 74.9336 44.1446 74.9677 44.0377C75.0019 43.9308 75.0134 43.8183 75.0016 43.7069C74.9761 43.4806 74.8653 43.2717 74.6907 43.1207C74.5161 42.9697 74.2902 42.8873 74.0569 42.8897V42.8911ZM80.5996 41.078C80.3851 41.1588 80.2117 41.3185 80.1168 41.5228C80.0219 41.7271 80.0129 41.9596 80.092 42.1703C80.1296 42.2749 80.1883 42.3711 80.2646 42.4533C80.3409 42.5355 80.4332 42.602 80.5361 42.649C80.6457 42.6995 80.7646 42.728 80.8858 42.7328C81.0069 42.7375 81.1278 42.7184 81.2412 42.6765C81.3507 42.641 81.4512 42.5832 81.5363 42.5071C81.6213 42.431 81.689 42.3383 81.7347 42.2349C81.7836 42.1265 81.8088 42.0094 81.8088 41.891C81.8088 41.7726 81.7836 41.6555 81.7347 41.5471C81.6397 41.3447 81.4706 41.1843 81.2606 41.0973C81.0506 41.0102 80.8149 41.0028 80.5996 41.0766V41.078ZM83.2054 39.8137C83.0118 39.9353 82.8727 40.1241 82.8162 40.3419C82.7596 40.5597 82.7899 40.7903 82.9008 40.9872C82.9736 41.117 83.0809 41.2254 83.2114 41.3009C83.3419 41.3764 83.4908 41.4163 83.6425 41.4164C83.847 41.4138 84.0447 41.3448 84.2043 41.2202C84.364 41.0956 84.4764 40.9226 84.5238 40.7285C84.5494 40.6206 84.5522 40.5087 84.5321 40.3997C84.512 40.2907 84.4693 40.1868 84.4068 40.0943C84.2815 39.9063 84.0872 39.7722 83.8637 39.7198C83.6402 39.6673 83.4046 39.7004 83.2054 39.8123V39.8137ZM86.8166 38.2564C86.7381 38.1709 86.6429 38.1014 86.5367 38.0521C86.4304 38.0027 86.3151 37.9744 86.1976 37.9689C85.9784 37.9595 85.764 38.0334 85.5997 38.1753C85.4661 38.2831 85.3682 38.4272 85.3183 38.5892C85.2684 38.7513 85.2689 38.9241 85.3195 39.086C85.3702 39.2478 85.4688 39.3914 85.603 39.4986C85.7372 39.6058 85.9009 39.6719 86.0735 39.6885C86.1059 39.6905 86.1384 39.6905 86.1708 39.6885C86.3774 39.6898 86.5776 39.6185 86.7348 39.4877C86.8251 39.4087 86.8985 39.3132 86.9507 39.2064C87.003 39.0997 87.0331 38.984 87.0394 38.8659C87.0454 38.7549 87.0289 38.644 86.9906 38.5393C86.9524 38.4347 86.8932 38.3386 86.8166 38.2564V38.2564Z" fill="white"/>
    </g>
    <defs>
        <clipPath id="clip0_4305_8876">
            <rect width="200" height="48.1132" fill="white"/>
        </clipPath>
    </defs>
</svg>
