<svg width="24" height="24" viewBox="0 0 24 24" fill="none" xmlns="http://www.w3.org/2000/svg">
    <path fill-rule="evenodd" clip-rule="evenodd" d="M24 0H0V24H24V0ZM9.0989 13.0831C9.50579 13.355 9.98416 13.5 10.4735 13.5C10.7986 13.5009 11.1207 13.4373 11.4211 13.313C11.7214 13.1886 11.9942 13.0059 12.2235 12.7755L11.5165 12.0685C11.2356 12.3365 10.8623 12.4861 10.474 12.4861C10.0857 12.4861 9.71239 12.3365 9.4315 12.0685C9.2945 11.9316 9.18582 11.7691 9.11167 11.5902C9.03751 11.4114 8.99935 11.2196 8.99935 11.026C8.99935 10.8323 9.03751 10.6406 9.11167 10.4617C9.18582 10.2828 9.2945 10.1203 9.4315 9.98348L11.9835 7.43148C12.2644 7.16342 12.6377 7.01386 13.026 7.01386C13.4143 7.01386 13.7876 7.16342 14.0685 7.43148C14.3445 7.70771 14.4997 8.0821 14.5 8.47257C14.5004 8.86304 14.346 9.23772 14.0705 9.51448L13.792 9.79298L14.4995 10.4995L14.776 10.2235C15.24 9.75949 15.5007 9.13017 15.5007 8.47398C15.5007 7.81779 15.24 7.18848 14.776 6.72448C14.312 6.26049 13.6827 5.99982 13.0265 5.99982C12.3703 5.99982 11.741 6.26049 11.277 6.72448L8.724 9.27648C8.37796 9.62248 8.1423 10.0633 8.04682 10.5433C7.95134 11.0232 8.00033 11.5207 8.1876 11.9728C8.37488 12.4249 8.69201 12.8113 9.0989 13.0831ZM14.4735 12.5C13.9842 12.5 13.5058 12.355 13.0989 12.0831C12.692 11.8113 12.3749 11.4249 12.1876 10.9728C12.0003 10.5207 11.9513 10.0232 12.0468 9.54327C12.1423 9.06332 12.378 8.62248 12.724 8.27648L13.0005 8.00048L13.7075 8.70798L13.4315 8.98398C13.1551 9.26041 12.9998 9.63532 12.9998 10.0262C12.9998 10.4172 13.1551 10.7921 13.4315 11.0685C13.7124 11.3365 14.0857 11.4861 14.474 11.4861C14.8623 11.4861 15.2356 11.3365 15.5165 11.0685L18.069 8.51598C18.3449 8.23938 18.4998 7.86466 18.4998 7.47398C18.4998 7.08331 18.3449 6.70858 18.069 6.43198C17.7881 6.16392 17.4148 6.01436 17.0265 6.01436C16.6382 6.01436 16.2649 6.16392 15.984 6.43198L15.277 5.72448C15.741 5.26049 16.3703 4.99982 17.0265 4.99982C17.6827 4.99982 18.312 5.26049 18.776 5.72448C19.24 6.18848 19.5007 6.81779 19.5007 7.47398C19.5007 8.13017 19.24 8.75949 18.776 9.22348L16.224 11.775C15.9947 12.0055 15.722 12.1882 15.4216 12.3127C15.1212 12.4371 14.7986 12.5008 14.4735 12.5ZM6.5 19H16.5C16.7651 18.9997 17.0193 18.8943 17.2068 18.7068C17.3943 18.5193 17.4997 18.2651 17.5 18V13H16.5V18H6.5V8H8.5V7H6.5C6.23486 7.00026 5.98066 7.10571 5.79319 7.29319C5.60571 7.48066 5.50026 7.73486 5.5 8V18C5.50026 18.2651 5.60571 18.5193 5.79319 18.7068C5.98066 18.8943 6.23486 18.9997 6.5 19Z" fill="white"/>
</svg>
