<svg width="24" height="25" viewBox="0 0 24 25" fill="none" xmlns="http://www.w3.org/2000/svg">
    <path d="M22.1819 12.0566C22.1819 12.0566 18.3637 5.05661 12.0001 5.05661C5.63642 5.05661 1.81824 12.0566 1.81824 12.0566C1.81824 12.0566 5.63642 19.0566 12.0001 19.0566C18.3637 19.0566 22.1819 12.0566 22.1819 12.0566ZM3.31115 12.0566C3.92653 11.1213 4.63433 10.2502 5.42387 9.45643C7.06187 7.81588 9.30187 6.32934 12.0001 6.32934C14.6982 6.32934 16.937 7.81588 18.5775 9.45643C19.3671 10.2502 20.0749 11.1213 20.6902 12.0566C20.6164 12.1673 20.535 12.2895 20.4421 12.4232C20.0157 13.0341 19.3857 13.8486 18.5775 14.6568C16.937 16.2973 14.697 17.7839 12.0001 17.7839C9.30187 17.7839 7.06315 16.2973 5.4226 14.6568C4.63306 13.863 3.92526 12.9919 3.30987 12.0566H3.31115Z" fill="white"/>
    <path d="M12.0001 8.87478C11.1562 8.87478 10.3469 9.21 9.75019 9.80671C9.15349 10.4034 8.81826 11.2127 8.81826 12.0566C8.81826 12.9005 9.15349 13.7098 9.75019 14.3065C10.3469 14.9032 11.1562 15.2384 12.0001 15.2384C12.8439 15.2384 13.6533 14.9032 14.25 14.3065C14.8467 13.7098 15.1819 12.9005 15.1819 12.0566C15.1819 11.2127 14.8467 10.4034 14.25 9.80671C13.6533 9.21 12.8439 8.87478 12.0001 8.87478ZM7.54553 12.0566C7.54553 10.8752 8.01485 9.74215 8.85024 8.90676C9.68563 8.07137 10.8187 7.60205 12.0001 7.60205C13.1815 7.60205 14.3145 8.07137 15.1499 8.90676C15.9853 9.74215 16.4546 10.8752 16.4546 12.0566C16.4546 13.238 15.9853 14.371 15.1499 15.2064C14.3145 16.0418 13.1815 16.5111 12.0001 16.5111C10.8187 16.5111 9.68563 16.0418 8.85024 15.2064C8.01485 14.371 7.54553 13.238 7.54553 12.0566Z" fill="white"/>
</svg>
