<svg width="108" height="118" viewBox="0 0 108 118" fill="none" xmlns="http://www.w3.org/2000/svg">
    <path d="M0.5 96.4303H21.5697V117.5H0.5V96.4303ZM0.5 96.4303H21.5697V117.5H0.5V96.4303ZM0.5 64.4537H21.5697V85.5234H0.5V64.4537ZM0.5 32.4768H21.5697V53.5464H0.5V32.4768ZM0.5 0.5H21.5697V21.5696H0.5V0.5ZM31.4656 96.4303H117.5V117.5H31.4656V96.4303ZM31.4656 96.4303H117.5V117.5H31.4656V96.4303ZM31.4656 64.4537H117.5V85.5234H31.4656V64.4537ZM31.4656 32.4768H117.5V53.5464H31.4656V32.4768ZM31.4656 0.5H117.5V21.5696H31.4656V0.5V0.5Z" fill="#353636"/>
</svg>
