<svg width="48" height="48" viewBox="0 0 48 48" fill="none" xmlns="http://www.w3.org/2000/svg">
    <path fill-rule="evenodd" clip-rule="evenodd" d="M48 0H0V48H48V0ZM14.1197 14.9162C14.1197 20.1907 18.5924 24.6481 23.9737 24.6481L24.0061 24.65C26.6026 24.6576 29.0958 23.6366 30.9378 21.8114C32.7799 19.9861 33.82 17.5061 33.8296 14.9162C33.8296 9.45746 29.5417 5 23.9756 5C18.5924 5 14.1197 9.45936 14.1197 14.9162ZM19.962 14.9181C19.962 12.6419 21.6954 10.7324 23.9737 10.7324C26.3472 10.7324 27.9911 12.64 27.9892 14.9181C27.9892 17.1906 26.3472 18.9196 23.9756 18.9196C21.6955 18.9196 19.962 17.1906 19.962 14.9181ZM33.4658 38.1136L27.8997 32.7479C29.9989 32.1114 32.0066 31.2925 33.7382 30.2C35.0163 29.4704 35.384 27.654 34.5611 26.2879C33.7401 24.9236 32.0085 24.5607 30.5475 25.4709C28.5691 26.6751 26.2962 27.3122 23.9785 27.3122C21.6607 27.3122 19.3879 26.6751 17.4094 25.4709C15.9484 24.5607 14.3064 24.9236 13.3939 26.2879C12.6644 27.654 12.9368 29.4723 14.3064 30.2C16.138 31.2861 18.0979 32.1407 20.1411 32.7441L14.4835 38.1117C13.3882 39.2935 13.3882 41.0225 14.4835 42.1151C15.1236 42.6585 15.8532 42.9321 16.4913 42.9321C17.3142 42.9321 18.0457 42.6604 18.5924 42.1151L23.9756 36.6563L29.5417 42.1151C30.4541 43.295 32.2809 43.295 33.4658 42.1151C34.5611 41.0225 34.5611 39.2935 33.4658 38.1136Z" fill="#C6CACE"/>
</svg>
