<svg width="30" height="30" viewBox="0 0 30 30" fill="none" xmlns="http://www.w3.org/2000/svg">
    <path d="M18.05 0.5H7.45005C6.74722 0.5 6.07319 0.800267 5.57622 1.33475C5.07924 1.86922 4.80005 2.59413 4.80005 3.35V26.15C4.80005 26.9059 5.07924 27.6308 5.57622 28.1653C6.07319 28.6997 6.74722 29 7.45005 29H23.35C24.0529 29 24.7269 28.6997 25.2239 28.1653C25.7208 27.6308 26 26.9059 26 26.15V9.05L18.05 0.5Z" stroke="#353636" stroke-linecap="round" stroke-linejoin="round"/>
    <path d="M18.05 0.5V9.05H26" stroke="#353636" stroke-linecap="round" stroke-linejoin="round"/>
    <path d="M27.5844 25.4803H2.41557C1.08185 25.4803 0 24.3984 0 23.0647V14.4156C0 13.0819 1.08185 12 2.41557 12H27.5844C28.9181 12 30 13.0819 30 14.4156V23.0647C30 24.3984 28.9181 25.4803 27.5844 25.4803Z" fill="#353636"/>
    <path d="M11.7463 18.2397C11.7463 19.3732 10.8933 20.0831 9.53655 20.0831H8.51181V21.4857H7.32678V16.3906H9.53082C10.8933 16.3906 11.7463 17.0948 11.7463 18.2397ZM10.5498 18.2397C10.5498 17.6787 10.1834 17.3524 9.46785 17.3524H8.50609V19.1213H9.46785C10.1892 19.1213 10.5498 18.7893 10.5498 18.2397Z" fill="white"/>
    <path d="M12.5815 16.3906H14.8944C16.5603 16.3906 17.7052 17.3925 17.7052 18.9382C17.7052 20.4781 16.5603 21.4857 14.8944 21.4857H12.5815V16.3906ZM14.8371 20.5182C15.8504 20.5182 16.5087 19.9171 16.5087 18.9382C16.5087 17.9649 15.8447 17.3581 14.8371 17.3581H13.7608V20.5182H14.8371Z" fill="white"/>
    <path d="M19.7711 17.3351V18.6804H22.1297V19.625H19.7711V21.4798H18.5918V16.3848H22.4388V17.3294H19.7711V17.3351Z" fill="white"/>
</svg>
