<svg width="605" height="57" viewBox="0 3 605 57" fill="none" xmlns="http://www.w3.org/2000/svg">
    <path d="M57.5 29.7731L57.5 30.7731L57.5 29.7731ZM203 29.773L203 28.773L203 29.773ZM203 60L208.773 50L197.226 50L203 60ZM404.5 60L410.273 50L398.726 50L404.5 60ZM599 29.7731L600 29.7731L600 28.7731L599 28.7731L599 29.7731ZM599 60L604.773 50L593.226 50L599 60ZM6 29.7731L6 28.7731L5 28.7731L5 29.7731L6 29.7731ZM6 60L11.7735 50L0.226499 50L6 60ZM56.5 -2.22138e-05L56.5 29.7731L58.5 29.7731L58.5 -2.21264e-05L56.5 -2.22138e-05ZM57.5 30.7731L203 30.773L203 28.773L57.5 28.7731L57.5 30.7731ZM202 29.773L202 51L204 51L204 29.773L202 29.773ZM203 30.773L404.5 30.7731L404.5 28.7731L203 28.773L203 30.773ZM403.5 29.7731L403.5 51L405.5 51L405.5 29.7731L403.5 29.7731ZM404.5 30.7731L599 30.7731L599 28.7731L404.5 28.7731L404.5 30.7731ZM598 29.7731L598 51L600 51L600 29.7731L598 29.7731ZM57.5 28.7731L6 28.7731L6 30.7731L57.5 30.7731L57.5 28.7731ZM5 29.7731L5 51L7 51L7 29.7731L5 29.7731Z" fill="#A2D9F7"/>
</svg>
