<svg width="968" height="156" viewBox="0 0 968 156" fill="none" xmlns="http://www.w3.org/2000/svg">
    <path d="M6 30.1047L6 29.1047L5 29.1047L5 30.1047L6 30.1047ZM6 60.6683L11.7735 50.6683L0.226499 50.6683L6 60.6683ZM755.55 156L761.324 146L749.777 146L755.55 156ZM962 30.1047L963 30.1047L963 29.1047L962 29.1047L962 30.1047ZM962 156L967.773 146L956.226 146L962 156ZM453 -2.32803e-05L453 30.1047L455 30.1047L455 -2.31929e-05L453 -2.32803e-05ZM454 29.1047L6 29.1047L6 31.1047L454 31.1047L454 29.1047ZM5 30.1047L5 51.6683L7 51.6683L7 30.1047L5 30.1047ZM454 31.1047L755.55 31.1047L755.55 29.1047L454 29.1047L454 31.1047ZM754.55 30.1047L754.55 147L756.55 147L756.55 30.1047L754.55 30.1047ZM755.55 31.1047L962 31.1047L962 29.1047L755.55 29.1047L755.55 31.1047ZM961 30.1047L961 147L963 147L963 30.1047L961 30.1047Z" fill="#A2D9F7"/>
</svg>
