<svg width="48" height="48" viewBox="0 0 48 48" fill="none" xmlns="http://www.w3.org/2000/svg">
    <path fill-rule="evenodd" clip-rule="evenodd" d="M48 0H0V48H48V0ZM41.834 12.098C43.158 12.098 43.438 12.78 43.158 13.71C42.602 16.268 37.26 23.792 37.258 23.79C36.796 24.534 36.608 24.904 37.258 25.742C37.4877 26.0624 37.9759 26.5407 38.5346 27.0881C39.1093 27.6512 39.7587 28.2874 40.278 28.9C42.162 31.018 43.582 32.808 43.976 34.038C44.336 35.274 43.71 35.9 42.458 35.9H38.074C36.901 35.9 36.3091 35.2418 35.0307 33.8201C34.4892 33.2178 33.8244 32.4784 32.94 31.594C30.338 29.088 29.222 28.76 28.574 28.76C27.692 28.76 27.426 29.012 27.426 30.264V34.196C27.426 35.276 27.082 35.902 24.296 35.902C19.648 35.902 14.546 33.082 10.922 27.88C5.486 20.262 4 14.502 4 13.338C4 12.69 4.25 12.1 5.504 12.1H9.888C11.008 12.1 11.43 12.59 11.848 13.804C13.994 20.052 17.61 25.51 19.096 25.51C19.656 25.51 19.91 25.252 19.91 23.838V17.382C19.8098 15.5414 19.1672 14.7458 18.6914 14.1569C18.398 13.7936 18.168 13.5089 18.168 13.106C18.168 12.614 18.588 12.098 19.284 12.098H26.176C27.106 12.098 27.428 12.594 27.428 13.71V22.396C27.428 23.326 27.832 23.65 28.11 23.65C28.666 23.65 29.132 23.326 30.152 22.3C33.312 18.774 35.542 13.336 35.542 13.336C35.822 12.688 36.332 12.098 37.448 12.098H41.834Z" fill="white"/>
</svg>
